<svg width="82.393555" height="82.358276" viewBox="0 0 82.3936 82.3583" fill="none" xmlns="http://www.w3.org/2000/svg" xmlns:xlink="http://www.w3.org/1999/xlink">
	<desc>
			Created with Pixso.
	</desc>
	<defs/>
	<path id="Ellipse" d="M31.14 4.35Q16.55 8.35 8.66 21.27Q0.76 34.17 3.88 49Q6.98 63.8 19.41 72.46Q31.81 81.12 46.79 78.9Q61.75 76.7 71.15 64.82Q80.54 52.96 79.23 37.87Q77.94 22.8 66.64 12.71Q55.38 2.63 40.23 3.01L40.15 0.01Q56.49 -0.4 68.64 10.47Q80.83 21.36 82.22 37.61Q83.63 53.89 73.5 66.67Q63.37 79.5 47.23 81.87Q31.07 84.26 17.69 74.92Q4.28 65.58 0.95 49.62Q-2.42 33.62 6.1 19.71Q14.61 5.77 30.34 1.46L31.14 4.35Z" fill="#40DDB6" fill-opacity="1.000000" fill-rule="evenodd"/>
</svg>
