<svg width="82.423828" height="82.396240" viewBox="0 0 82.4238 82.3962" fill="none" xmlns="http://www.w3.org/2000/svg" xmlns:xlink="http://www.w3.org/1999/xlink">
	<path id="Ellipse" d="M19.84 9.55Q8.13 17.48 4.42 31.13Q0.69 44.77 6.78 57.54Q12.84 70.31 25.78 76.04Q38.7 81.77 52.24 77.68Q65.78 73.61 73.39 61.68Q81.01 49.77 79 35.76Q77.01 21.76 66.36 12.45Q55.73 3.13 41.58 2.99L41.6 0Q56.87 0.14 68.33 10.19Q79.82 20.24 81.97 35.33Q84.13 50.44 75.92 63.29Q67.71 76.16 53.11 80.55Q38.5 84.97 24.56 78.78Q10.6 72.61 4.07 58.83Q-2.5 45.05 1.52 30.34Q5.52 15.62 18.16 7.07L19.84 9.55Z" fill="#40DDB6" fill-opacity="1.000000" fill-rule="evenodd"/>
</svg>
