<svg width="17.030273" height="23.580566" viewBox="0 0 17.0303 23.5806" fill="none" xmlns="http://www.w3.org/2000/svg" xmlns:xlink="http://www.w3.org/1999/xlink">
	<path d="M0.75 8.02C0.75 12.64 5.92 19.95 7.82 22.48C7.9 22.59 8 22.67 8.12 22.73C8.24 22.79 8.38 22.83 8.51 22.83C8.64 22.83 8.78 22.79 8.9 22.73C9.02 22.67 9.12 22.59 9.2 22.48C11.1 19.95 16.28 12.64 16.28 8.02C16.28 4 12.8 0.75 8.51 0.75C4.22 0.75 0.75 4 0.75 8.02Z" stroke="#40DDB6" stroke-opacity="1.000000" stroke-width="1.500000" stroke-linejoin="round"/>
	<path d="M8.51 12.39C6.79 12.39 5.4 11 5.4 9.29C5.4 7.57 6.79 6.18 8.51 6.18C10.23 6.18 11.62 7.57 11.62 9.29C11.62 11 10.23 12.39 8.51 12.39Z" stroke="#40DDB6" stroke-opacity="1.000000" stroke-width="1.500000" stroke-linejoin="round"/>
</svg>
