<svg width="150.963867" height="45.509521" viewBox="0 0 150.964 45.5095" fill="none" xmlns="http://www.w3.org/2000/svg" xmlns:xlink="http://www.w3.org/1999/xlink">
	<desc>
			Created with Pixso.
	</desc>
	<defs/>
	<path d="M21.11 9.11L22.23 8.88C22.51 8.88 22.75 8.94 22.91 9.05C23.08 9.17 23.17 9.29 23.17 9.39C23.17 9.5 23.14 9.66 23.09 9.85C23.05 10.04 22.63 12.02 21.86 15.75C21.08 19.48 20.52 22.26 20.16 24.09C21.89 21.76 23.91 18.9 26.22 15.5C28.53 12.09 29.88 9.84 30.27 8.72C30.39 8.36 30.55 8.1 30.75 7.9C30.94 7.71 31.12 7.6 31.27 7.57C31.42 7.54 31.66 7.51 31.97 7.51C32.28 7.51 32.65 7.58 33.09 7.71C33.52 7.85 33.74 8.07 33.74 8.39C33.74 8.98 32.85 10.71 31.08 13.54C29.3 16.37 27.26 19.38 24.97 22.56C22.68 25.74 20.77 28.27 19.24 30.12C18.97 30.45 18.63 30.62 18.24 30.62C17.85 30.62 17.43 30.55 17 30.42C16.57 30.29 16.35 30.05 16.35 29.7C16.35 28.59 17.33 23.25 19.3 13.71C17.61 15.87 15.57 18.87 13.18 22.72C10.67 26.7 9.26 29.18 8.93 30.12C8.75 30.7 8.54 31.04 8.31 31.13C8.14 31.2 7.96 31.23 7.78 31.23L6.58 31.36C6.34 31.36 6.13 31.3 5.92 31.17C5.73 31.04 5.62 30.9 5.62 30.76C5.62 30.36 6.19 29.15 7.31 27.14C8.42 25.14 9.75 22.96 11.25 20.6C12.76 18.24 14.32 15.95 15.96 13.73C17.6 11.5 18.86 10 19.76 9.25C19.94 9.08 20.14 9.01 20.38 9.01L21.11 9.11Z" fill="#37393F" fill-opacity="1.000000" fill-rule="nonzero"/>
	<path d="M39.01 19.11C39.79 19.11 40.17 19.38 40.17 19.89C40.17 20.17 40.12 20.38 39.98 20.51C39.85 20.64 39.56 21.07 39.13 21.82C38.7 22.56 38.22 23.5 37.7 24.67C37.18 25.82 36.84 26.81 36.69 27.62C36.66 27.72 36.65 27.85 36.65 28.04C36.65 28.6 36.79 28.87 37.11 28.87C37.42 28.87 37.78 28.72 38.19 28.44C38.61 28.15 38.98 27.85 39.31 27.51C39.64 27.19 39.95 26.85 40.26 26.51C40.58 26.17 40.75 25.97 40.81 25.92C40.87 25.88 40.96 25.85 41.08 25.85C41.28 25.85 41.4 26 41.44 26.29C41.49 26.58 41.5 26.88 41.5 27.2C41.5 27.53 41.47 27.73 41.41 27.85C41.11 28.43 40.47 29.12 39.46 29.93C38.46 30.74 37.54 31.14 36.72 31.14C35.9 31.14 35.29 30.89 34.92 30.4C34.54 29.92 34.34 29.36 34.34 28.77C34.34 28.16 34.44 27.65 34.65 27.19C33.8 28.28 32.83 29.19 31.75 29.96C30.64 30.71 29.76 31.1 29.06 31.1C28.37 31.1 27.81 30.89 27.37 30.48C26.8 29.96 26.53 29.25 26.53 28.34C26.53 27.43 26.74 26.51 27.16 25.58C27.58 24.67 28.11 23.81 28.78 23.06C29.45 22.29 30.2 21.6 31 20.98C32.68 19.67 34.25 19.02 35.68 19.02C36.23 19.02 36.67 19.11 37.02 19.29C37.36 19.46 37.58 19.7 37.67 19.96C37.91 19.6 38.12 19.38 38.3 19.27C38.43 19.15 38.69 19.11 39.01 19.11ZM36.99 20.79C35.25 20.79 33.44 21.75 31.58 23.67C30.93 24.36 30.32 25.17 29.75 26.13C29.18 27.09 28.92 27.73 28.92 28.09C28.92 28.44 29.02 28.62 29.23 28.62C29.51 28.62 30.3 28.06 31.61 26.95C32.92 25.85 33.79 25.02 34.2 24.49C34.68 23.9 35.6 22.66 36.99 20.79Z" fill="#37393F" fill-opacity="1.000000" fill-rule="nonzero"/>
	<path d="M50.6 11.12L51.22 11.27C51.31 11.27 51.4 11.31 51.46 11.4C51.54 11.49 51.57 11.58 51.57 11.65C51.57 11.72 51.46 11.94 51.24 12.3C51.02 12.65 50.78 13.05 50.48 13.49C50.18 13.93 50.03 14.19 50.02 14.23C50.81 14.17 51.37 14.14 51.7 14.14C52.03 14.14 52.25 14.17 52.39 14.22C52.5 14.26 52.65 14.39 52.8 14.6C52.97 14.8 53.1 14.97 53.23 15.07C53.37 15.17 53.43 15.34 53.43 15.54C53.43 15.75 53.29 15.94 53.04 16.07C52.79 16.22 52.5 16.31 52.21 16.34C49.84 16.57 48.54 16.69 48.31 16.71C47.49 17.96 46.33 19.91 44.85 22.55C43.38 25.18 42.59 26.85 42.5 27.51C42.45 27.82 42.44 28.06 42.44 28.25C42.44 28.65 42.65 28.84 43.06 28.84C43.48 28.84 43.94 28.68 44.45 28.37C44.96 28.04 45.43 27.71 45.85 27.34C47 26.33 47.61 25.82 47.68 25.82C47.95 25.82 48.08 26.28 48.08 27.17C48.08 27.66 47.86 28.1 47.4 28.5C46.37 29.37 45.51 30.03 44.81 30.48C44.11 30.92 43.41 31.14 42.69 31.14C42.54 31.14 42.39 31.13 42.26 31.1C41.44 30.95 40.84 30.65 40.47 30.21C40.08 29.77 39.91 29.18 39.91 28.44C39.91 27.71 40.13 26.79 40.58 25.73C41.02 24.67 41.57 23.53 42.24 22.34C43.35 20.38 44.45 18.55 45.54 16.84L44.96 16.91C43.78 17.05 43.09 17.1 42.9 17.1L42.77 17.1C42.47 17.1 42.18 17.05 41.92 16.93C41.65 16.81 41.5 16.66 41.5 16.5C41.5 16.32 41.57 16.16 41.72 16C41.87 15.84 41.96 15.7 41.99 15.62C42.07 15.39 42.33 15.14 42.79 14.88C43.26 14.61 43.6 14.47 43.84 14.45C44.08 14.44 44.3 14.42 44.52 14.41C44.75 14.39 44.98 14.39 45.25 14.38C45.52 14.36 45.73 14.36 45.88 14.35L47.25 14.29C48.1 13.02 48.69 12.2 49.01 11.84C49.33 11.47 49.51 11.28 49.56 11.25C49.6 11.22 49.71 11.19 49.87 11.19L50.6 11.12Z" fill="#37393F" fill-opacity="1.000000" fill-rule="nonzero"/>
	<path d="M59.76 25.85C59.95 25.85 60.07 25.99 60.12 26.29C60.16 26.58 60.17 26.88 60.17 27.2C60.17 27.53 60.14 27.73 60.08 27.85C59.79 28.41 59.15 29.11 58.15 29.92C57.15 30.73 56.2 31.14 55.3 31.14C54.75 31.14 54.25 30.98 53.77 30.65C53.31 30.33 53.07 29.75 53.07 28.94C53.07 28.13 53.29 27.32 53.73 26.54C51.19 29.68 49.23 31.24 47.78 31.24C47.22 31.24 46.76 31.04 46.4 30.64C46.04 30.24 45.88 29.83 45.88 29.39C45.88 28.96 45.94 28.52 46.06 28.06C46.18 27.6 46.31 27.19 46.44 26.82C46.58 26.45 46.79 26.01 47.05 25.48C47.32 24.95 47.53 24.56 47.65 24.31C47.77 24.06 47.99 23.71 48.29 23.22C48.59 22.74 48.96 22.07 49.44 21.25C49.91 20.42 50.3 19.8 50.61 19.4C50.93 19.01 51.22 18.8 51.52 18.8C51.82 18.8 52.07 18.92 52.3 19.15C52.52 19.39 52.64 19.6 52.64 19.74C52.64 19.89 52.3 20.57 51.61 21.78C49.6 25.39 48.59 27.48 48.59 28.09C48.59 28.24 48.65 28.31 48.75 28.31C49.24 28.31 50.46 27.26 52.4 25.17C54.34 23.08 55.47 21.73 55.78 21.14C56.09 20.55 56.38 20.05 56.67 19.65C56.96 19.26 57.18 19.01 57.33 18.92C57.76 18.64 58.33 18.49 59.03 18.46C59.15 18.46 59.22 18.46 59.28 18.48C59.34 18.49 59.41 18.58 59.49 18.73C59.56 18.87 59.61 19.01 59.61 19.11C59.52 19.39 59.12 20.14 58.39 21.37C57.67 22.59 57.27 23.28 57.2 23.43C55.99 25.89 55.39 27.5 55.39 28.24C55.39 28.66 55.56 28.87 55.89 28.87C56.48 28.8 57.2 28.32 58.03 27.47C58.34 27.16 58.64 26.84 58.94 26.51C59.24 26.19 59.43 25.99 59.49 25.95C59.56 25.88 59.65 25.85 59.76 25.85Z" fill="#37393F" fill-opacity="1.000000" fill-rule="nonzero"/>
	<path d="M64.18 22.35C66.58 19.66 68.63 18.3 70.32 18.3C70.73 18.3 71.08 18.42 71.34 18.67C71.61 18.92 71.75 19.23 71.75 19.63C71.75 20.02 71.46 20.67 70.9 21.6C70.33 22.52 69.81 23.3 69.33 23.93C69.08 24.26 68.8 24.42 68.47 24.42C68.16 24.42 67.9 24.3 67.73 24.06C67.55 23.83 67.46 23.56 67.46 23.25C67.46 22.56 67.83 21.76 68.59 20.89L68.56 20.86C68.22 20.89 67.4 21.56 66.06 22.83C64.73 24.11 63.6 25.26 62.66 26.26C61.74 27.28 60.73 28.5 59.62 29.96C59.31 30.39 59.04 30.61 58.82 30.61C58.6 30.61 58.31 30.54 57.96 30.4C57.6 30.27 57.37 30.17 57.3 30.11C57.23 30.05 57.18 29.95 57.18 29.8C57.18 29.67 57.23 29.49 57.3 29.31C57.37 29.12 57.54 28.86 57.75 28.52C57.96 28.18 58.3 27.62 58.75 26.85C59.19 26.08 59.88 24.92 60.82 23.37C61.75 21.82 62.3 20.88 62.5 20.55C62.89 19.89 63.2 19.4 63.45 19.11C63.91 18.53 64.69 18.25 65.77 18.25C66.01 18.25 66.15 18.4 66.15 18.71C66.15 19.18 65.7 20.08 64.82 21.38L64.18 22.35Z" fill="#37393F" fill-opacity="1.000000" fill-rule="nonzero"/>
	<path d="M80.61 19.29C80.61 19.95 80.34 20.54 79.79 21.04C79.24 21.54 78.63 21.79 77.93 21.79C77.7 21.79 77.55 21.73 77.48 21.63C77.41 21.53 77.37 21.38 77.37 21.22C77.37 21.06 77.39 20.88 77.43 20.72C77.06 20.84 76.66 21.03 76.21 21.28C75.77 21.53 75.22 21.9 74.56 22.4C73.91 22.9 73.58 23.25 73.58 23.5C73.58 23.58 73.7 23.62 73.93 23.62C74.17 23.62 74.55 23.53 75.04 23.37C75.53 23.21 75.89 23.12 76.08 23.12C76.27 23.12 76.41 23.14 76.47 23.15C76.6 23.22 76.73 23.37 76.9 23.61C77.05 23.84 77.12 24.03 77.12 24.17C77.12 24.3 76.99 24.48 76.72 24.7C76.45 24.92 76.15 25.08 75.83 25.2C75.48 25.32 75.26 25.41 75.16 25.46C73.01 26.66 71.94 27.47 71.94 27.91C71.94 28.69 72.61 29.09 73.96 29.09C74.83 29.09 75.71 28.83 76.57 28.28C77.32 27.82 77.99 27.35 78.58 26.87C79.18 26.39 79.55 26.1 79.71 25.98C79.88 25.86 80 25.82 80.07 25.82C80.34 25.82 80.47 26.11 80.47 26.7C80.47 27.29 80.44 27.68 80.37 27.85C80.29 28.04 80.1 28.27 79.76 28.55C77.58 30.3 75.51 31.18 73.58 31.18C72.54 31.18 71.72 31.04 71.09 30.76C69.94 30.24 69.38 29.46 69.38 28.4C69.38 27.01 70.35 25.95 72.3 25.24C71.91 25.07 71.66 24.86 71.55 24.58C71.43 24.31 71.39 23.89 71.39 23.3C71.39 22.71 71.67 22.09 72.22 21.42C72.77 20.76 73.46 20.22 74.26 19.8C76.05 18.84 77.66 18.37 79.06 18.37C79.4 18.37 79.73 18.45 80.09 18.61C80.44 18.77 80.61 18.99 80.61 19.29Z" fill="#37393F" fill-opacity="1.000000" fill-rule="nonzero"/>
	<path d="M115.37 9.03L115.56 9.03C115.62 9.03 115.66 9.03 115.68 9.04C115.69 9.05 115.71 9.05 115.74 9.07C115.77 9.07 115.78 9.08 115.81 9.11C115.86 9.16 115.93 9.2 116.02 9.25C116.14 9.33 116.2 9.44 116.2 9.56C116.2 9.67 116.08 9.92 115.84 10.31C115.6 10.69 114.99 11.62 114 13.12C111.72 16.57 109.68 19.79 107.87 22.74C104.76 27.87 103.18 30.45 103.15 30.48C103.12 30.51 103.11 30.54 103.09 30.57C103.08 30.62 103.05 30.65 102.97 30.65L102.77 30.61L102.35 30.71L102.11 30.67L101.86 30.71L101.77 30.71L100.92 30.83C100.41 30.83 100.16 30.65 100.16 30.31C100.16 30.17 100.21 29.99 100.29 29.78C100.61 29.05 102.2 26.38 105.06 21.75C103.18 21.79 101.32 21.82 99.49 21.82L96.21 21.81C95.68 22.66 94.93 23.87 94 25.45C91.97 28.88 90.9 30.61 90.76 30.64C90.63 30.67 90.52 30.7 90.44 30.7C90.35 30.7 90.27 30.65 90.21 30.55C90.14 30.46 90.09 30.4 90.06 30.4C90.03 30.4 89.99 30.42 89.9 30.46C89.83 30.51 89.71 30.52 89.54 30.52L89.18 30.51L89.05 30.42C89.04 30.42 89.02 30.43 89.01 30.46C88.99 30.49 88.95 30.51 88.89 30.51C88.46 30.51 88.23 30.33 88.23 29.96C88.23 29.73 88.32 29.4 88.48 29C88.66 28.6 88.89 28.18 89.17 27.72C89.45 27.26 90.17 26.16 91.34 24.43C92.51 22.71 93.09 21.84 93.09 21.82C92.89 21.81 92.67 21.81 92.42 21.79C91.89 21.79 91.54 21.78 91.31 21.73C90.73 21.63 90.33 21.16 90.12 20.32C90 19.91 89.96 19.64 89.97 19.51C89.97 19.24 90.09 19.1 90.33 19.1L90.73 19.2C90.94 19.21 91.42 19.23 92.19 19.27C92.97 19.32 93.52 19.33 93.86 19.33L94.72 19.3C96.05 17.25 97.63 14.92 99.47 12.33C98.13 13.42 96.65 13.96 95.01 13.96C94.23 13.96 93.56 13.79 93.01 13.42C92.45 13.05 92.18 12.58 92.18 12.02C92.18 11.46 92.39 11.02 92.82 10.68C93.25 10.35 93.65 10.19 94.04 10.19C94.43 10.19 94.62 10.25 94.62 10.37C94.62 10.41 94.56 10.46 94.46 10.5C94.35 10.56 94.29 10.6 94.29 10.65C94.29 10.81 94.47 10.96 94.83 11.07C95.19 11.19 95.59 11.27 96.04 11.27C96.48 11.27 97.02 11.13 97.67 10.88C98.33 10.63 99 10.29 99.7 9.9C100.68 9.33 101.46 8.86 102.02 8.49C102.35 8.33 102.65 8.26 102.95 8.26C103.24 8.26 103.44 8.29 103.57 8.36C103.7 8.42 103.79 8.49 103.85 8.55C103.91 8.61 103.99 8.7 104.05 8.8C104.12 8.91 104.18 9 104.26 9.04C104.32 9.1 104.36 9.16 104.36 9.23C104.36 9.31 104.32 9.41 104.24 9.57C104.17 9.72 103.78 10.34 103.08 11.41C102.38 12.49 101.47 13.86 100.37 15.53C99.27 17.19 98.46 18.42 97.96 19.21C100.68 19.21 103.62 19.17 106.77 19.07C110.61 13.07 112.64 9.92 112.85 9.63C113.06 9.33 113.25 9.14 113.43 9.05C113.61 8.97 113.82 8.92 114.07 8.92L115.37 9.03Z" fill="#37393F" fill-opacity="1.000000" fill-rule="nonzero"/>
	<path d="M120.34 19.08C120.65 19.08 120.97 19.21 121.28 19.49C121.61 19.77 121.75 20.19 121.75 20.75C121.75 21.31 121.56 22.03 121.16 22.93C120.76 23.81 120.22 24.73 119.52 25.66C118.84 26.57 118.06 27.44 117.24 28.25C116.41 29.06 115.52 29.73 114.56 30.24C113.59 30.76 112.73 31.02 111.94 31.02C111.15 31.02 110.53 30.77 110.05 30.29C109.57 29.8 109.33 29.12 109.33 28.25C109.33 27.38 109.56 26.41 109.99 25.36C110.42 24.3 110.97 23.37 111.66 22.56C112.34 21.75 113.07 21.03 113.88 20.38C115.53 19.05 116.99 18.4 118.24 18.4C118.81 18.4 119.22 18.54 119.51 18.82C119.61 18.9 119.65 18.99 119.65 19.05L119.65 19.14C119.82 19.08 120.04 19.08 120.34 19.08ZM118.81 21.09L118.7 21.09C118.34 21.09 118.17 20.83 118.17 20.32C117.42 20.55 116.65 20.98 115.83 21.59C115.01 22.19 114.28 22.91 113.64 23.74C112.33 25.39 111.67 26.79 111.66 27.93C111.66 28.49 111.87 28.77 112.28 28.77C112.7 28.77 113.33 28.49 114.14 27.96C114.96 27.43 115.78 26.64 116.6 25.63C117.41 24.62 118.02 23.74 118.42 23C118.82 22.27 119.03 21.76 119.03 21.48C119.01 21.22 118.94 21.09 118.81 21.09Z" fill="#37393F" fill-opacity="1.000000" fill-rule="nonzero"/>
	<path d="M121.43 30.68L120.68 30.65L120.41 30.65C120.31 30.62 120.21 30.57 120.09 30.48C119.97 30.39 119.88 30.31 119.82 30.29C119.76 30.26 119.73 30.17 119.73 30.06C119.73 29.96 119.77 29.77 119.85 29.52C121.83 25.2 123.75 21.73 125.61 19.15C125.82 18.87 126.15 18.65 126.59 18.51C127.04 18.36 127.49 18.28 127.92 18.28C128.17 18.28 128.31 18.48 128.31 18.87C128.31 18.99 128.26 19.14 128.19 19.32C128.11 19.51 127.9 19.8 127.58 20.23C127.25 20.66 126.86 21.14 126.42 21.68C125.97 22.21 125.72 22.53 125.66 22.62C127.06 21.19 128.31 20.13 129.44 19.42C130.57 18.73 131.37 18.37 131.88 18.37C132.39 18.37 132.77 18.52 133.04 18.8C133.31 19.08 133.44 19.39 133.44 19.71C133.44 20.04 133.41 20.32 133.37 20.53C133.33 20.75 133.24 20.97 133.12 21.2C133 21.44 132.89 21.65 132.8 21.81C132.72 21.97 132.57 22.19 132.37 22.46C132.16 22.72 132.03 22.91 131.96 23.02C131.88 23.12 131.72 23.31 131.48 23.59C131.24 23.87 131.11 24.03 131.09 24.06C131.37 23.78 131.78 23.37 132.28 22.81C132.79 22.25 133.22 21.79 133.58 21.42C133.94 21.06 134.37 20.63 134.9 20.16C135.44 19.68 135.93 19.3 136.38 19.02C137.48 18.34 138.6 17.99 139.73 17.99C140.12 17.99 140.44 18.11 140.71 18.36C140.98 18.61 141.11 18.89 141.11 19.23C141.11 19.57 140.7 20.38 139.88 21.65C139.06 22.91 138.22 24.2 137.41 25.48C136.59 26.76 136.17 27.57 136.17 27.91C136.17 28.37 136.26 28.65 136.42 28.74C136.6 28.83 136.81 28.86 137.05 28.84C137.29 28.83 137.64 28.66 138.08 28.37C138.52 28.07 138.91 27.78 139.25 27.45C139.82 26.95 140.32 26.47 140.82 26C140.92 25.91 141.02 25.86 141.16 25.86C141.35 25.86 141.47 26.01 141.52 26.3C141.56 26.6 141.58 26.89 141.58 27.22C141.58 27.54 141.55 27.75 141.49 27.87C141.19 28.43 140.53 29.12 139.53 29.95C138.52 30.76 137.56 31.17 136.63 31.17C136.51 31.17 136.44 31.17 136.39 31.16C135.35 31.05 134.62 30.77 134.22 30.3C133.82 29.83 133.62 29.27 133.62 28.63C133.62 28 133.85 27.2 134.29 26.29C134.74 25.38 135.22 24.54 135.75 23.8C136.29 23.06 136.77 22.38 137.21 21.78C137.66 21.17 137.88 20.85 137.88 20.81C137.88 20.76 137.84 20.73 137.76 20.73C137.45 20.73 136.75 21.23 135.65 22.25C133.79 23.98 132.18 25.64 130.82 27.23C130.47 27.66 129.62 28.72 128.29 30.45C128.14 30.65 127.89 30.76 127.56 30.76C127.23 30.76 126.89 30.7 126.53 30.57C126.18 30.43 126 30.27 126 30.08C126 29.98 126.8 28.56 128.43 25.83C130.05 23.11 130.85 21.62 130.85 21.38C130.85 21.13 130.7 21.01 130.41 21.01C130.11 21.01 129.48 21.45 128.55 22.34C125.97 24.77 123.97 27.2 122.56 29.61C122.47 29.75 122.29 29.98 122.02 30.27C121.75 30.57 121.52 30.68 121.43 30.68Z" fill="#37393F" fill-opacity="1.000000" fill-rule="nonzero"/>
	<path d="M150.96 19.29C150.96 19.95 150.69 20.54 150.14 21.04C149.59 21.54 148.98 21.79 148.28 21.79C148.06 21.79 147.91 21.73 147.83 21.63C147.76 21.53 147.73 21.38 147.73 21.22C147.73 21.06 147.74 20.88 147.79 20.72C147.41 20.84 147.01 21.03 146.57 21.28C146.12 21.53 145.57 21.9 144.91 22.4C144.26 22.9 143.93 23.25 143.93 23.5C143.93 23.58 144.05 23.62 144.29 23.62C144.52 23.62 144.9 23.53 145.39 23.37C145.88 23.21 146.24 23.12 146.43 23.12C146.63 23.12 146.76 23.14 146.82 23.15C146.95 23.22 147.09 23.37 147.25 23.61C147.4 23.84 147.47 24.03 147.47 24.17C147.47 24.3 147.34 24.48 147.07 24.7C146.8 24.92 146.51 25.08 146.18 25.2C145.84 25.32 145.61 25.41 145.51 25.46C143.36 26.66 142.29 27.47 142.29 27.91C142.29 28.69 142.96 29.09 144.32 29.09C145.18 29.09 146.06 28.83 146.92 28.28C147.67 27.82 148.34 27.35 148.93 26.87C149.53 26.39 149.9 26.1 150.06 25.98C150.23 25.86 150.35 25.82 150.42 25.82C150.69 25.82 150.82 26.11 150.82 26.7C150.82 27.29 150.79 27.68 150.72 27.85C150.64 28.04 150.45 28.27 150.11 28.55C147.94 30.3 145.87 31.18 143.93 31.18C142.89 31.18 142.07 31.04 141.44 30.76C140.3 30.24 139.73 29.46 139.73 28.4C139.73 27.01 140.7 25.95 142.65 25.24C142.26 25.07 142.01 24.86 141.9 24.58C141.78 24.31 141.74 23.89 141.74 23.3C141.74 22.71 142.02 22.09 142.57 21.42C143.13 20.76 143.81 20.22 144.61 19.8C146.4 18.84 148.01 18.37 149.41 18.37C149.75 18.37 150.08 18.45 150.44 18.61C150.79 18.77 150.96 18.99 150.96 19.29Z" fill="#37393F" fill-opacity="1.000000" fill-rule="nonzero"/>
	<path d="M0 34.77C3.91 36.39 7.9 37.64 11.97 38.6C16 39.6 20.11 40.31 24.22 40.75C26.28 41.03 28.35 41.06 30.39 41.25C32.46 41.27 34.52 41.43 36.57 41.31L39.65 41.24C40.68 41.22 41.71 41.09 42.74 41.03C43.76 40.94 44.79 40.9 45.8 40.77L48.86 40.34C52.95 39.9 56.93 38.95 60.89 37.82C64.9 36.73 68.68 35.28 72.68 33.78C76.78 32.29 81.22 31.32 85.71 31.79C87.93 32.07 90.17 32.78 91.98 34.07C93.82 35.36 95.13 37.18 95.96 39.1C94.71 37.39 93.15 35.99 91.34 35.12C89.54 34.25 87.56 33.9 85.6 33.96C81.62 34.02 77.7 35.33 74.02 36.98C70.29 38.81 66.24 40.46 62.16 41.83C58.04 43.14 53.8 44.19 49.5 44.72C40.93 45.84 32.16 45.85 23.7 44.16C19.46 43.39 15.32 42.2 11.31 40.68C7.34 39.1 3.45 37.26 0 34.77Z" fill="#40DDB6" fill-opacity="1.000000" fill-rule="nonzero"/>
	<path d="M142.41 10.22C139.09 8.82 135.71 7.73 132.28 6.87C128.87 5.97 125.42 5.34 121.95 4.9C120.22 4.63 118.46 4.57 116.74 4.37C114.99 4.32 113.27 4.15 111.52 4.22C110.66 4.23 109.78 4.23 108.92 4.22C108.05 4.22 107.18 4.31 106.31 4.34C105.45 4.4 104.57 4.41 103.71 4.5L101.11 4.81C97.64 5.09 94.28 5.8 90.91 6.67C87.5 7.48 84.27 8.63 80.83 9.78C77.3 10.94 73.47 11.65 69.63 11.12C67.74 10.81 65.83 10.15 64.33 8.97C62.8 7.8 61.75 6.21 61.11 4.54C62.17 6 63.48 7.2 64.99 7.93C66.49 8.67 68.14 8.98 69.8 8.97C73.13 8.97 76.44 7.9 79.56 6.58C82.75 5.07 86.25 3.75 89.74 2.66C93.25 1.61 96.91 0.81 100.58 0.43C107.89 -0.34 115.37 -0.16 122.53 1.52C126.12 2.27 129.62 3.42 132.97 4.84C136.33 6.28 139.58 7.96 142.41 10.22Z" fill="#6B77E5" fill-opacity="1.000000" fill-rule="nonzero"/>
</svg>
