<svg width="136.963867" height="43.758057" viewBox="0 0 136.964 43.7581" fill="none" xmlns="http://www.w3.org/2000/svg" xmlns:xlink="http://www.w3.org/1999/xlink">
	<desc>
			Created with Pixso.
	</desc>
	<defs/>
	<path d="M12.13 0L12.13 0.19L11.33 0.38L11.33 8.87L12.13 9.06L12.13 9.25L8.32 9.25L8.32 9.06L9.12 8.87L9.12 1.63L5.97 9.39L5.56 9.39L1.47 1.63L1.47 8.66L2.54 9.06L2.54 9.25L0 9.25L0 9.06L1.07 8.66L1.07 0.38L0.26 0.19L0.26 0L1.93 0C2.18 0 2.41 0.02 2.59 0.08C2.76 0.14 2.94 0.22 3.08 0.32C3.23 0.42 3.35 0.54 3.45 0.67C3.55 0.81 3.64 0.97 3.73 1.13L6.65 6.66L8.89 1.13C8.96 0.94 9.04 0.78 9.14 0.64C9.23 0.51 9.35 0.39 9.48 0.29C9.62 0.19 9.78 0.11 9.97 0.07C10.17 0.02 10.41 0 10.7 0L12.13 0Z" fill="#40DDB6" fill-opacity="1.000000" fill-rule="nonzero"/>
	<path d="M16.9 2.46C17.45 2.46 17.95 2.53 18.39 2.69C18.82 2.85 19.19 3.09 19.5 3.39C19.82 3.7 20.04 4.06 20.2 4.49C20.37 4.92 20.44 5.42 20.44 5.97C20.44 6.51 20.37 7.01 20.2 7.44C20.04 7.87 19.8 8.24 19.5 8.55C19.19 8.86 18.82 9.08 18.39 9.24C17.95 9.4 17.45 9.47 16.9 9.47C16.35 9.47 15.84 9.4 15.41 9.24C14.98 9.08 14.6 8.84 14.29 8.55C13.98 8.24 13.76 7.87 13.59 7.44C13.43 7.01 13.35 6.51 13.35 5.97C13.35 5.42 13.43 4.92 13.59 4.49C13.76 4.06 13.99 3.7 14.29 3.39C14.6 3.08 14.98 2.85 15.41 2.69C15.84 2.53 16.33 2.46 16.9 2.46ZM16.9 9.22C17.05 9.22 17.2 9.18 17.36 9.08C17.51 8.97 17.64 8.81 17.76 8.56C17.88 8.31 17.99 7.99 18.06 7.57C18.13 7.15 18.18 6.61 18.18 5.98C18.18 5.33 18.13 4.8 18.06 4.39C17.99 3.98 17.88 3.64 17.76 3.4C17.64 3.16 17.51 2.99 17.36 2.88C17.21 2.78 17.06 2.74 16.9 2.74C16.75 2.74 16.6 2.78 16.44 2.88C16.29 2.99 16.15 3.15 16.03 3.4C15.91 3.65 15.81 3.98 15.74 4.39C15.66 4.82 15.62 5.35 15.62 5.98C15.62 6.63 15.66 7.16 15.74 7.57C15.81 7.99 15.91 8.32 16.03 8.56C16.15 8.8 16.29 8.97 16.44 9.08C16.58 9.17 16.73 9.22 16.9 9.22Z" fill="#40DDB6" fill-opacity="1.000000" fill-rule="nonzero"/>
	<path d="M26.95 0C27.75 0 28.16 0.39 28.16 1.19L28.16 8.89L28.96 9.08L28.96 9.27L27.75 9.27C27.43 9.27 27.17 9.22 26.98 9.12C26.79 9.02 26.62 8.9 26.52 8.78C26.38 8.63 26.28 8.46 26.22 8.28C26.1 8.52 25.95 8.71 25.77 8.89C25.62 9.03 25.42 9.17 25.16 9.3C24.91 9.43 24.61 9.49 24.27 9.49C23.88 9.49 23.52 9.42 23.2 9.27C22.85 9.12 22.57 8.9 22.33 8.61C22.09 8.31 21.89 7.94 21.75 7.51C21.6 7.07 21.54 6.57 21.54 5.98C21.54 5.39 21.62 4.89 21.75 4.45C21.9 4.01 22.09 3.65 22.36 3.36C22.62 3.06 22.93 2.84 23.29 2.69C23.64 2.55 24.05 2.47 24.49 2.47C24.73 2.47 24.94 2.5 25.13 2.55C25.33 2.6 25.49 2.66 25.62 2.74C25.79 2.81 25.92 2.9 26.04 3L26.04 0.42L25.24 0.23L25.24 0.04L26.95 0.04L26.95 0ZM26.01 3.39C25.91 3.28 25.82 3.19 25.7 3.12C25.59 3.05 25.49 2.99 25.37 2.93C25.25 2.87 25.13 2.86 25 2.86C24.83 2.86 24.67 2.9 24.52 2.99C24.37 3.08 24.25 3.22 24.13 3.44C24.03 3.67 23.94 3.99 23.88 4.39C23.82 4.8 23.79 5.32 23.79 5.97C23.79 6.6 23.82 7.1 23.88 7.5C23.94 7.9 24.02 8.21 24.12 8.43C24.21 8.65 24.31 8.81 24.45 8.89C24.57 8.96 24.69 9 24.81 9C25.01 9 25.19 8.94 25.34 8.84C25.49 8.74 25.61 8.61 25.71 8.47C25.83 8.31 25.94 8.13 26.03 7.94L26.03 3.39L26.01 3.39Z" fill="#40DDB6" fill-opacity="1.000000" fill-rule="nonzero"/>
	<path d="M33.44 9.49C32.3 9.49 31.4 9.18 30.78 8.56C30.14 7.94 29.82 7.07 29.82 5.98C29.82 5.43 29.9 4.93 30.06 4.51C30.23 4.08 30.45 3.71 30.73 3.4C31.02 3.09 31.36 2.87 31.78 2.71C32.18 2.55 32.62 2.47 33.12 2.47C33.62 2.47 34.07 2.55 34.46 2.68C34.86 2.83 35.19 3.02 35.47 3.25C35.75 3.49 35.96 3.77 36.11 4.09C36.26 4.42 36.33 4.76 36.33 5.13C36.33 5.24 36.33 5.36 36.32 5.45C36.3 5.54 36.29 5.63 36.27 5.7C36.24 5.79 36.23 5.86 36.2 5.92C35.81 6 35.39 6.07 34.95 6.11C34.58 6.17 34.14 6.22 33.65 6.25C33.16 6.28 32.65 6.3 32.12 6.3C32.12 6.85 32.16 7.31 32.24 7.68C32.31 8.04 32.43 8.34 32.56 8.55C32.71 8.77 32.88 8.91 33.07 9C33.26 9.09 33.49 9.14 33.71 9.14C33.98 9.14 34.23 9.09 34.47 8.99C34.71 8.88 34.92 8.77 35.08 8.6C35.26 8.44 35.39 8.25 35.5 8.04C35.6 7.84 35.65 7.63 35.65 7.41L35.97 7.41C35.97 7.68 35.91 7.93 35.8 8.18C35.68 8.43 35.5 8.65 35.27 8.84C35.05 9.03 34.78 9.18 34.47 9.3C34.17 9.43 33.83 9.49 33.44 9.49ZM32.1 5.97C32.4 5.97 32.67 5.97 32.91 5.95C33.15 5.94 33.34 5.92 33.5 5.91C33.7 5.89 33.84 5.86 33.98 5.85C33.99 5.76 34.02 5.66 34.04 5.55C34.05 5.45 34.07 5.35 34.08 5.23C34.1 5.11 34.1 4.98 34.1 4.85C34.1 4.45 34.07 4.11 34.01 3.84C33.95 3.58 33.87 3.36 33.77 3.18C33.68 3.02 33.58 2.88 33.44 2.83C33.31 2.77 33.21 2.72 33.09 2.72C32.97 2.72 32.85 2.77 32.73 2.85C32.61 2.94 32.5 3.11 32.4 3.33C32.31 3.56 32.22 3.89 32.16 4.31C32.1 4.74 32.1 5.29 32.1 5.97Z" fill="#40DDB6" fill-opacity="1.000000" fill-rule="nonzero"/>
	<path d="M41.96 2.91C41.69 2.91 41.46 2.97 41.25 3.08C41.04 3.18 40.86 3.31 40.71 3.44C40.55 3.61 40.41 3.78 40.28 3.98L40.28 8.89L41.08 9.08L41.08 9.27L37.33 9.27L37.33 9.08L38.13 8.89L38.13 3.05L37.33 2.86L37.33 2.66L38.54 2.66C38.85 2.66 39.1 2.72 39.31 2.83C39.5 2.93 39.67 3.05 39.79 3.16C39.92 3.31 40.03 3.47 40.08 3.65C40.22 3.46 40.38 3.28 40.58 3.12C40.74 2.99 40.95 2.87 41.2 2.75C41.46 2.63 41.74 2.59 42.08 2.59C42.56 2.59 42.91 2.71 43.15 2.91C43.39 3.14 43.5 3.44 43.5 3.84C43.5 4.14 43.41 4.39 43.23 4.57C43.05 4.74 42.8 4.83 42.5 4.83C42.42 4.83 42.36 4.83 42.29 4.83C42.21 4.83 42.17 4.82 42.12 4.82C42.07 4.8 42.01 4.8 41.96 4.77L41.96 2.91Z" fill="#40DDB6" fill-opacity="1.000000" fill-rule="nonzero"/>
	<path d="M49.26 4.64C49.26 4.34 49.23 4.08 49.17 3.86C49.11 3.64 49.04 3.46 48.93 3.33C48.84 3.18 48.74 3.08 48.6 3.02C48.48 2.96 48.37 2.91 48.25 2.91C48.04 2.91 47.86 2.97 47.71 3.08C47.56 3.18 47.43 3.31 47.34 3.44C47.22 3.61 47.13 3.78 47.04 3.98L47.04 8.89L47.84 9.08L47.84 9.27L44.09 9.27L44.09 9.08L44.89 8.89L44.89 3.05L44.09 2.86L44.09 2.66L45.3 2.66C45.61 2.66 45.86 2.72 46.07 2.83C46.26 2.93 46.43 3.05 46.55 3.16C46.68 3.31 46.79 3.47 46.85 3.65C46.96 3.43 47.11 3.22 47.29 3.05C47.44 2.9 47.65 2.77 47.89 2.63C48.13 2.5 48.44 2.44 48.8 2.44C49.18 2.44 49.54 2.5 49.85 2.63C50.18 2.75 50.45 2.93 50.67 3.12C50.9 3.33 51.08 3.55 51.21 3.81C51.34 4.08 51.4 4.34 51.4 4.62L51.4 8.87L52.21 9.06L52.21 9.25L50.46 9.25C49.66 9.25 49.26 8.86 49.26 8.06L49.26 4.64Z" fill="#40DDB6" fill-opacity="1.000000" fill-rule="nonzero"/>
	<path d="M1.41 18.59L1.41 18.04L11.76 18.04L11.76 18.59L9.59 19.13L9.59 30.26L17.39 30.26L17.39 19.13L15.21 18.59L15.21 18.04L25.57 18.04L25.57 18.59L23.39 19.13L23.39 42.13L25.57 42.68L25.57 43.22L15.21 43.22L15.21 42.66L17.39 42.12L17.39 31.16L9.59 31.16L9.59 42.12L11.76 42.66L11.76 43.21L1.41 43.21L1.41 42.66L3.58 42.12L3.58 19.12L1.41 18.59Z" fill="#37393F" fill-opacity="1.000000" fill-rule="nonzero"/>
	<path d="M38.43 24.69C39.94 24.69 41.28 24.91 42.47 25.34C43.66 25.77 44.66 26.4 45.49 27.23C46.33 28.05 46.96 29.05 47.4 30.23C47.83 31.41 48.05 32.74 48.05 34.23C48.05 35.72 47.83 37.05 47.4 38.22C46.96 39.4 46.33 40.39 45.49 41.22C44.66 42.04 43.64 42.68 42.47 43.1C41.28 43.53 39.94 43.75 38.43 43.75C36.93 43.75 35.59 43.53 34.4 43.1C33.21 42.68 32.21 42.04 31.37 41.22C30.54 40.39 29.9 39.39 29.47 38.22C29.04 37.05 28.81 35.72 28.81 34.23C28.81 32.74 29.04 31.41 29.47 30.23C29.9 29.05 30.54 28.07 31.37 27.23C32.21 26.39 33.22 25.77 34.4 25.34C35.59 24.91 36.93 24.69 38.43 24.69ZM38.43 43.02C38.85 43.02 39.25 42.88 39.67 42.62C40.08 42.35 40.44 41.9 40.77 41.23C41.1 40.57 41.37 39.67 41.57 38.53C41.78 37.4 41.89 35.95 41.89 34.2C41.89 32.45 41.78 31 41.57 29.86C41.37 28.73 41.1 27.83 40.77 27.17C40.44 26.5 40.07 26.05 39.67 25.78C39.27 25.52 38.85 25.38 38.43 25.38C38.01 25.38 37.61 25.52 37.2 25.78C36.78 26.05 36.42 26.5 36.09 27.17C35.77 27.83 35.5 28.73 35.29 29.86C35.08 31 34.98 32.45 34.98 34.2C34.98 35.95 35.08 37.4 35.29 38.53C35.5 39.67 35.77 40.57 36.09 41.23C36.42 41.9 36.79 42.35 37.2 42.62C37.61 42.88 38.01 43.02 38.43 43.02Z" fill="#37393F" fill-opacity="1.000000" fill-rule="nonzero"/>
	<path d="M75.26 30.62C75.26 29.76 75.19 29.03 75.04 28.45C74.89 27.88 74.71 27.39 74.47 27.02C74.23 26.65 73.98 26.39 73.71 26.21C73.43 26.05 73.16 25.96 72.89 25.96C72.43 25.96 72.03 26.11 71.67 26.4C71.31 26.7 71.02 27.03 70.75 27.39C70.46 27.82 70.2 28.3 69.99 28.82L69.99 42.12L72.18 42.66L72.18 43.21L62.02 43.21L62.02 42.66L64.2 42.12L64.2 30.62C64.2 29.76 64.12 29.03 63.97 28.45C63.82 27.88 63.64 27.39 63.41 27.02C63.17 26.65 62.91 26.39 62.65 26.21C62.36 26.05 62.1 25.96 61.83 25.96C61.37 25.96 60.96 26.11 60.61 26.4C60.25 26.7 59.95 27.03 59.68 27.39C59.39 27.82 59.13 28.3 58.92 28.82L58.92 42.12L61.1 42.66L61.1 43.21L50.94 43.21L50.94 42.66L53.12 42.12L53.12 26.31L50.94 25.77L50.94 25.22L54.2 25.22C55.05 25.22 55.75 25.37 56.29 25.65C56.84 25.93 57.26 26.25 57.58 26.58C57.94 26.99 58.21 27.43 58.39 27.9C58.7 27.3 59.09 26.77 59.55 26.28C59.97 25.87 60.47 25.5 61.07 25.16C61.68 24.82 62.41 24.66 63.29 24.66C64.73 24.66 66 24.99 67.04 25.62C68.1 26.25 68.9 27.08 69.45 28.08C69.77 27.46 70.15 26.9 70.61 26.39C71.03 25.96 71.54 25.56 72.13 25.21C72.74 24.85 73.47 24.66 74.35 24.66C75.35 24.66 76.24 24.82 77.08 25.13C77.9 25.44 78.61 25.87 79.21 26.42C79.8 26.96 80.26 27.58 80.59 28.3C80.92 29.03 81.08 29.79 81.08 30.6L81.08 42.1L83.26 42.65L83.26 43.19L78.54 43.19C76.36 43.19 75.28 42.12 75.28 39.96L75.28 30.62L75.26 30.62Z" fill="#37393F" fill-opacity="1.000000" fill-rule="nonzero"/>
	<path d="M95.23 43.74C92.13 43.74 89.72 42.9 88.01 41.2C86.29 39.51 85.43 37.19 85.43 34.21C85.43 32.73 85.66 31.4 86.09 30.22C86.52 29.04 87.13 28.05 87.9 27.21C88.68 26.39 89.62 25.75 90.72 25.32C91.82 24.9 93.03 24.68 94.32 24.68C95.68 24.68 96.9 24.87 97.97 25.25C99.04 25.63 99.97 26.15 100.71 26.8C101.46 27.45 102.04 28.21 102.44 29.08C102.84 29.95 103.03 30.88 103.03 31.87C103.03 32.21 103.02 32.5 102.97 32.75C102.93 33.01 102.9 33.23 102.84 33.42C102.77 33.65 102.71 33.86 102.66 34.02C101.59 34.24 100.47 34.42 99.28 34.57C98.27 34.72 97.09 34.83 95.77 34.95C94.44 35.06 93.04 35.11 91.6 35.11C91.6 36.6 91.7 37.84 91.92 38.83C92.15 39.82 92.45 40.61 92.83 41.2C93.22 41.79 93.68 42.21 94.22 42.46C94.75 42.71 95.33 42.84 95.96 42.84C96.69 42.84 97.37 42.71 98.02 42.44C98.66 42.18 99.21 41.82 99.68 41.38C100.16 40.94 100.53 40.44 100.82 39.88C101.1 39.32 101.23 38.74 101.23 38.17L102.14 38.17C102.14 38.89 101.98 39.58 101.65 40.24C101.32 40.92 100.86 41.51 100.25 42.03C99.64 42.54 98.92 42.96 98.08 43.27C97.21 43.58 96.26 43.74 95.23 43.74ZM91.6 34.21C92.42 34.21 93.15 34.2 93.77 34.16C94.4 34.11 94.93 34.08 95.37 34.04C95.87 33.99 96.3 33.93 96.68 33.86C96.72 33.62 96.78 33.36 96.85 33.06C96.9 32.8 96.94 32.5 96.97 32.18C97 31.86 97.03 31.52 97.03 31.16C97.03 30.09 96.94 29.19 96.78 28.45C96.62 27.71 96.39 27.12 96.14 26.67C95.89 26.21 95.59 25.88 95.28 25.69C94.95 25.5 94.62 25.4 94.31 25.4C94 25.4 93.67 25.52 93.34 25.74C93.01 25.97 92.73 26.4 92.48 27.03C92.22 27.67 92.01 28.57 91.83 29.72C91.69 30.87 91.6 32.37 91.6 34.21Z" fill="#37393F" fill-opacity="1.000000" fill-rule="nonzero"/>
	<path d="M120.86 42.84L120.86 28.26L107.85 18.06L107.85 42.84L120.86 42.84Z" fill="#6B77E5" fill-opacity="1.000000" fill-rule="nonzero"/>
	<path d="M136.96 42.84L136.96 28.26L124.15 18.06L124.15 42.84L136.96 42.84Z" fill="#6B77E5" fill-opacity="1.000000" fill-rule="nonzero"/>
</svg>
