<svg width="119.778320" height="71.486084" viewBox="0 0 119.778 71.4861" fill="none" xmlns="http://www.w3.org/2000/svg" xmlns:xlink="http://www.w3.org/1999/xlink">
	<desc>
			Created with Pixso.
	</desc>
	<defs/>
	<path d="M61.48 60.86C47.76 74.83 25.24 75.05 11.26 61.32C10.65 60.72 10.06 60.11 9.5 59.47L10.84 58.29C11.38 58.89 11.93 59.49 12.51 60.05C25.78 73.08 47.18 72.88 60.21 59.61L61.48 60.86Z" fill="#40DDB6" fill-opacity="1.000000" fill-rule="nonzero"/>
	<path d="M63.47 13.31L62.09 14.45C61.35 13.58 60.57 12.72 59.75 11.91C46.48 -1.12 25.08 -0.91 12.06 12.36C11.17 13.26 10.32 14.23 9.54 15.22L8.13 14.12C8.95 13.07 9.84 12.06 10.79 11.11C24.5 -2.87 47.03 -3.09 61 10.63C61.87 11.48 62.7 12.39 63.47 13.31Z" fill="#40DDB6" fill-opacity="1.000000" fill-rule="nonzero"/>
	<path d="M110.88 12.04L109.54 13.22C109 12.62 108.45 12.02 107.87 11.45C95.64 -0.53 76.39 -1.48 63.08 9.26L61.95 7.86C75.96 -3.45 96.24 -2.46 109.11 10.17C109.73 10.78 110.32 11.4 110.88 12.04Z" fill="#40DDB6" fill-opacity="1.000000" fill-rule="nonzero"/>
	<path d="M109.59 60.41C97.7 72.52 78.83 74.53 64.7 65.2L65.69 63.71C79.1 72.56 97.02 70.65 108.31 59.16C109.19 58.25 110.04 57.29 110.82 56.29L112.23 57.39C111.41 58.44 110.53 59.45 109.59 60.41Z" fill="#40DDB6" fill-opacity="1.000000" fill-rule="nonzero"/>
	<path d="M4.79 54.41L5.22 54.15L6.05 55.5L6.98 54.91L6.33 53.87L6.75 53.61L7.4 54.65L8.79 53.8L9.11 54.31L5.94 56.28L4.79 54.41Z" fill="#37393F" fill-opacity="1.000000" fill-rule="nonzero"/>
	<path d="M5.9 49.3L5.41 48.14L5.87 47.95L6.59 49.68L3.15 51.11L2.91 50.55L5.9 49.3Z" fill="#37393F" fill-opacity="1.000000" fill-rule="nonzero"/>
	<path d="M4.54 44.39C4.44 44.71 4.27 44.99 4.02 45.21C3.77 45.44 3.47 45.59 3.11 45.67C2.75 45.76 2.41 45.75 2.1 45.64C1.79 45.53 1.51 45.36 1.29 45.11C1.06 44.86 0.91 44.56 0.84 44.22C0.76 43.88 0.77 43.55 0.86 43.23C0.96 42.91 1.13 42.64 1.37 42.41C1.62 42.18 1.92 42.03 2.28 41.95C2.64 41.87 2.98 41.88 3.3 41.99C3.62 42.08 3.89 42.25 4.11 42.51C4.34 42.76 4.49 43.05 4.56 43.39C4.64 43.73 4.62 44.06 4.54 44.39ZM3.74 42.9C3.59 42.74 3.4 42.62 3.16 42.56C2.93 42.5 2.69 42.5 2.42 42.56C2.15 42.62 1.93 42.73 1.75 42.88C1.57 43.03 1.45 43.21 1.38 43.43C1.32 43.64 1.31 43.87 1.37 44.11C1.42 44.35 1.52 44.56 1.67 44.72C1.82 44.88 2.01 44.99 2.23 45.06C2.46 45.12 2.71 45.12 2.98 45.06C3.25 44.99 3.47 44.89 3.65 44.73C3.83 44.58 3.95 44.4 4.03 44.19C4.1 43.97 4.1 43.75 4.04 43.51C3.99 43.27 3.89 43.07 3.74 42.9Z" fill="#37393F" fill-opacity="1.000000" fill-rule="nonzero"/>
	<path d="M3.7 36.48L2.24 37.39L2.26 37.86L3.76 37.8L3.77 38.41L0.04 38.54L0 37.26C-0.01 36.97 0.03 36.73 0.12 36.52C0.21 36.32 0.35 36.17 0.51 36.07C0.67 35.96 0.86 35.91 1.06 35.9C1.3 35.89 1.53 35.95 1.73 36.09C1.94 36.22 2.08 36.43 2.16 36.72L3.68 35.75L3.7 36.48ZM1.77 37.88L1.74 37.2C1.73 36.96 1.67 36.79 1.55 36.69C1.44 36.57 1.28 36.52 1.09 36.52C0.9 36.53 0.75 36.6 0.64 36.71C0.53 36.83 0.49 37.01 0.5 37.24L0.52 37.91L1.77 37.88Z" fill="#37393F" fill-opacity="1.000000" fill-rule="nonzero"/>
	<path d="M3.4 30.16L3.18 31.71L3.9 32.08L3.81 32.72L0.29 30.88L0.39 30.18L4.28 29.37L4.19 30.01L3.4 30.16ZM2.88 30.26L1.08 30.62L2.72 31.46L2.88 30.26Z" fill="#37393F" fill-opacity="1.000000" fill-rule="nonzero"/>
	<path d="M4.72 25.59L5.09 24.38L5.56 24.53L5.02 26.32L1.45 25.23L1.62 24.65L4.72 25.59Z" fill="#37393F" fill-opacity="1.000000" fill-rule="nonzero"/>
	<path d="M6.81 21.13C6.64 21.28 6.46 21.37 6.27 21.4C6.08 21.44 5.89 21.41 5.69 21.31L5.98 20.72C6.13 20.78 6.27 20.78 6.42 20.72C6.56 20.67 6.68 20.54 6.77 20.36C6.85 20.18 6.88 20.01 6.84 19.85C6.8 19.7 6.7 19.59 6.56 19.52C6.44 19.47 6.33 19.46 6.24 19.49C6.14 19.52 6.04 19.58 5.95 19.66C5.87 19.74 5.76 19.85 5.63 20.01C5.47 20.19 5.32 20.35 5.2 20.45C5.07 20.56 4.92 20.63 4.75 20.67C4.58 20.7 4.38 20.67 4.18 20.57C3.98 20.48 3.84 20.35 3.74 20.18C3.64 20.01 3.6 19.83 3.6 19.62C3.6 19.41 3.66 19.19 3.77 18.96C3.92 18.64 4.13 18.4 4.39 18.27C4.65 18.13 4.93 18.13 5.23 18.24L4.93 18.85C4.8 18.81 4.68 18.81 4.54 18.88C4.4 18.94 4.29 19.07 4.2 19.24C4.13 19.4 4.11 19.54 4.14 19.68C4.18 19.83 4.27 19.92 4.42 20C4.53 20.05 4.62 20.06 4.71 20.02C4.81 20 4.9 19.93 4.98 19.86C5.06 19.78 5.17 19.67 5.3 19.52C5.47 19.32 5.61 19.17 5.74 19.07C5.87 18.96 6.02 18.88 6.2 18.84C6.38 18.81 6.57 18.83 6.78 18.94C6.95 19.02 7.1 19.15 7.2 19.31C7.31 19.47 7.37 19.66 7.37 19.88C7.38 20.1 7.33 20.33 7.21 20.57C7.11 20.8 6.98 20.99 6.81 21.13Z" fill="#37393F" fill-opacity="1.000000" fill-rule="nonzero"/>
	<path d="M115.47 17.74L115.04 17.99L114.24 16.62L113.29 17.18L113.91 18.24L113.48 18.49L112.86 17.43L111.45 18.25L111.14 17.72L114.38 15.85L115.47 17.74Z" fill="#37393F" fill-opacity="1.000000" fill-rule="nonzero"/>
	<path d="M114.22 22.82L114.67 24L114.21 24.18L113.54 22.42L117.02 21.09L117.24 21.66L114.22 22.82Z" fill="#37393F" fill-opacity="1.000000" fill-rule="nonzero"/>
	<path d="M115.44 27.78C115.55 27.45 115.73 27.18 115.98 26.97C116.23 26.76 116.54 26.6 116.9 26.53C117.26 26.46 117.6 26.49 117.91 26.59C118.22 26.71 118.49 26.89 118.71 27.15C118.92 27.41 119.07 27.7 119.13 28.04C119.19 28.38 119.17 28.72 119.07 29.04C118.96 29.35 118.78 29.62 118.53 29.84C118.28 30.07 117.97 30.21 117.62 30.27C117.26 30.35 116.92 30.32 116.6 30.21C116.28 30.1 116.02 29.92 115.81 29.66C115.59 29.41 115.45 29.11 115.39 28.76C115.32 28.42 115.33 28.09 115.44 27.78ZM116.19 29.28C116.35 29.45 116.52 29.57 116.76 29.64C116.99 29.71 117.23 29.71 117.5 29.66C117.77 29.61 117.99 29.51 118.18 29.37C118.36 29.23 118.49 29.05 118.57 28.83C118.64 28.62 118.65 28.39 118.6 28.15C118.56 27.91 118.46 27.7 118.31 27.53C118.17 27.36 117.98 27.25 117.76 27.18C117.54 27.1 117.29 27.1 117.02 27.15C116.75 27.2 116.52 27.3 116.34 27.44C116.16 27.59 116.02 27.77 115.95 27.98C115.88 28.2 115.86 28.42 115.91 28.66C115.95 28.9 116.05 29.11 116.19 29.28Z" fill="#37393F" fill-opacity="1.000000" fill-rule="nonzero"/>
	<path d="M116.04 35.7L117.53 34.83L117.53 34.37L116.03 34.37L116.03 33.77L119.77 33.75L119.77 35.04C119.77 35.32 119.73 35.57 119.63 35.76C119.53 35.96 119.4 36.11 119.23 36.21C119.06 36.31 118.87 36.36 118.66 36.36C118.42 36.36 118.2 36.29 118 36.16C117.8 36.02 117.66 35.8 117.59 35.5L116.05 36.43L116.04 35.7ZM118.01 34.36L118.01 35.04C118.01 35.27 118.07 35.44 118.19 35.56C118.31 35.67 118.46 35.73 118.65 35.73C118.85 35.73 119 35.66 119.11 35.56C119.22 35.44 119.27 35.27 119.27 35.04L119.27 34.36L118.01 34.36Z" fill="#37393F" fill-opacity="1.000000" fill-rule="nonzero"/>
	<path d="M116.16 42.02L116.42 40.48L115.71 40.09L115.82 39.45L119.28 41.39L119.17 42.09L115.25 42.79L115.36 42.15L116.16 42.02ZM116.68 41.94L118.49 41.63L116.88 40.73L116.68 41.94Z" fill="#37393F" fill-opacity="1.000000" fill-rule="nonzero"/>
	<path d="M114.71 46.55L114.3 47.75L113.84 47.59L114.43 45.81L117.97 46.99L117.78 47.57L114.71 46.55Z" fill="#37393F" fill-opacity="1.000000" fill-rule="nonzero"/>
	<path d="M112.5 50.95C112.67 50.81 112.85 50.72 113.04 50.7C113.24 50.67 113.43 50.71 113.62 50.8L113.33 51.39C113.18 51.32 113.03 51.32 112.89 51.38C112.75 51.43 112.63 51.55 112.53 51.73C112.43 51.91 112.41 52.08 112.44 52.24C112.48 52.39 112.57 52.51 112.71 52.58C112.82 52.63 112.93 52.65 113.03 52.62C113.14 52.59 113.23 52.54 113.32 52.46C113.41 52.38 113.52 52.27 113.65 52.12C113.82 51.93 113.96 51.79 114.1 51.68C114.22 51.57 114.38 51.51 114.55 51.48C114.72 51.44 114.91 51.48 115.12 51.59C115.31 51.69 115.45 51.82 115.55 52C115.65 52.17 115.68 52.35 115.67 52.57C115.67 52.78 115.59 53 115.48 53.22C115.32 53.54 115.09 53.77 114.83 53.89C114.56 54.02 114.29 54.02 113.99 53.89L114.3 53.29C114.43 53.35 114.56 53.34 114.71 53.28C114.85 53.22 114.96 53.11 115.05 52.94C115.13 52.78 115.15 52.63 115.13 52.49C115.1 52.34 115.01 52.24 114.86 52.17C114.76 52.11 114.66 52.1 114.56 52.13C114.47 52.16 114.38 52.21 114.29 52.28C114.2 52.35 114.09 52.47 113.96 52.61C113.79 52.8 113.64 52.95 113.51 53.06C113.37 53.17 113.22 53.24 113.05 53.28C112.87 53.31 112.68 53.27 112.47 53.16C112.3 53.07 112.16 52.94 112.07 52.77C111.96 52.6 111.91 52.42 111.9 52.19C111.9 51.97 111.97 51.74 112.08 51.51C112.18 51.27 112.33 51.09 112.5 50.95Z" fill="#37393F" fill-opacity="1.000000" fill-rule="nonzero"/>
	<path d="M33.54 27.96C34.61 27.96 35.42 27.83 35.99 27.59C36.54 27.34 36.91 27.15 37.08 27.02C37.08 27.28 37.03 27.6 36.92 27.96C36.81 28.32 36.62 28.67 36.34 29.02C36.06 29.36 35.69 29.66 35.25 29.89C34.8 30.12 34.23 30.25 33.54 30.25C32.66 30.25 31.81 30.08 30.99 29.75C30.18 29.41 29.37 29.06 28.58 28.66C27.78 28.28 27 27.92 26.22 27.58C25.44 27.24 24.65 27.08 23.84 27.08C22.96 27.08 22.18 27.22 21.52 27.5C20.86 27.78 20.29 28.15 19.83 28.61C19.36 29.07 18.99 29.59 18.68 30.18C18.38 30.78 18.14 31.38 17.96 31.99C17.78 32.6 17.65 33.2 17.59 33.78C17.53 34.37 17.49 34.88 17.49 35.33C17.49 35.96 17.54 36.44 17.65 36.8C17.76 37.16 17.83 37.38 17.88 37.49L17.88 37.53C17.43 37.4 17.02 37.21 16.65 36.98C16.35 36.77 16.08 36.48 15.83 36.11C15.58 35.74 15.46 35.27 15.46 34.7C15.46 33.79 15.66 32.86 16.06 31.89C16.45 30.93 17.01 30.05 17.71 29.25C18.42 28.46 19.28 27.8 20.29 27.28C21.31 26.76 22.42 26.51 23.64 26.51C24.35 26.51 25.14 26.59 26 26.74C26.86 26.89 27.73 27.05 28.62 27.24C29.52 27.42 30.38 27.59 31.23 27.74C32.08 27.88 32.85 27.96 33.54 27.96ZM21.41 44.47C21.41 44.25 21.48 43.89 21.59 43.39C21.71 42.89 21.87 42.29 22.08 41.59C22.28 40.89 22.51 40.11 22.78 39.25C23.05 38.39 23.33 37.51 23.61 36.59C23.02 36.71 22.54 36.77 22.16 36.77C21.9 36.77 21.68 36.73 21.51 36.65C21.34 36.57 21.2 36.47 21.09 36.35C20.98 36.24 20.91 36.13 20.87 36.02C20.82 35.91 20.8 35.83 20.8 35.76C20.87 35.83 20.99 35.9 21.17 35.97C21.35 36.04 21.56 36.08 21.77 36.08C22 36.08 22.31 36.05 22.68 35.97C23.04 35.9 23.44 35.8 23.87 35.69C24.08 34.91 24.3 34.14 24.51 33.38C24.73 32.61 24.91 31.9 25.08 31.26C25.24 30.61 25.36 30.06 25.46 29.59C25.56 29.13 25.6 28.8 25.6 28.61C25.6 28.52 25.6 28.45 25.6 28.39C25.6 28.32 25.59 28.22 25.57 28.06C25.72 28.11 25.93 28.18 26.21 28.29C26.49 28.39 26.76 28.52 27.02 28.65C27.28 28.8 27.5 28.93 27.7 29.06C27.9 29.18 27.98 29.28 27.98 29.34C27.98 29.68 27.84 30.36 27.55 31.38C27.26 32.39 26.89 33.58 26.46 34.96C27.09 34.79 27.59 34.63 27.98 34.49C28.36 34.35 28.72 34.25 29.04 34.19C29.04 34.02 29.02 33.88 28.98 33.8C29.26 33.85 29.54 33.89 29.83 33.93C30.12 33.97 30.38 34.03 30.63 34.09C30.89 34.15 31.08 34.23 31.23 34.33C31.39 34.43 31.46 34.54 31.46 34.67C31.46 34.87 31.41 35.09 31.33 35.35C31.24 35.61 31.15 35.88 31.05 36.16C30.94 36.43 30.85 36.71 30.77 37C30.69 37.28 30.67 37.54 30.69 37.8C30.54 37.8 30.32 37.8 30.04 37.8C29.77 37.8 29.49 37.8 29.22 37.77C28.95 37.75 28.72 37.7 28.51 37.62C28.31 37.55 28.21 37.43 28.21 37.26C28.21 37.13 28.24 36.96 28.33 36.76C28.4 36.55 28.49 36.34 28.58 36.09C28.68 35.86 28.77 35.62 28.86 35.39C28.95 35.15 29.01 34.95 29.06 34.78C28.69 34.89 28.3 35.04 27.87 35.23C27.44 35.42 26.9 35.62 26.26 35.83C25.98 36.78 25.69 37.74 25.41 38.72C25.12 39.69 24.85 40.62 24.62 41.5C24.39 42.38 24.18 43.18 24.02 43.87C23.86 44.57 23.77 45.13 23.74 45.53C23.65 45.51 23.48 45.46 23.22 45.37C22.96 45.28 22.7 45.19 22.43 45.09C22.16 44.99 21.93 44.89 21.73 44.79C21.52 44.68 21.41 44.57 21.41 44.47Z" fill="#6B77E5" fill-opacity="1.000000" fill-rule="nonzero"/>
	<path d="M92.1 41.71C92.25 41.15 92.49 40.28 92.83 39.09C93.16 37.91 93.57 36.6 94.05 35.15C94.54 33.7 95.09 32.2 95.73 30.67C96.36 29.13 97.03 27.73 97.76 26.46C98.47 25.19 99.24 24.15 100.05 23.34C100.86 22.52 101.69 22.11 102.55 22.11C102.87 22.11 103.18 22.22 103.47 22.43C103.76 22.65 104.03 22.88 104.26 23.14C104.52 23.44 104.76 23.78 105 24.17C104.94 24.15 104.86 24.12 104.78 24.11C104.72 24.09 104.64 24.06 104.55 24.04C104.46 24.03 104.38 24.01 104.29 24.01C103.2 24.01 102.16 24.39 101.2 25.17C100.23 25.94 99.33 26.93 98.49 28.12C97.65 29.31 96.9 30.63 96.22 32.08C95.54 33.53 94.95 34.94 94.43 36.29C93.91 37.64 93.48 38.87 93.12 39.96C92.76 41.05 92.51 41.85 92.36 42.34C92.48 42.6 92.62 42.76 92.74 42.83C92.27 42.89 91.83 42.9 91.42 42.85C91.01 42.79 90.65 42.64 90.33 42.4C90 42.15 89.75 41.8 89.56 41.33C89.36 40.87 89.25 40.28 89.23 39.58C89.22 38.91 89.19 38.06 89.17 37.04C89.15 36.02 89.13 35 89.11 33.98C89.09 32.96 89.07 32.05 89.06 31.24C89.06 30.44 89.05 29.93 89.05 29.71L89.05 29.19C88.88 29.71 88.58 30.53 88.18 31.67C87.77 32.81 87.26 34.09 86.66 35.5C86.07 36.92 85.39 38.38 84.65 39.87C83.91 41.37 83.13 42.74 82.31 43.98C81.5 45.23 80.66 46.25 79.8 47.04C78.94 47.84 78.09 48.24 77.25 48.24C76.93 48.24 76.66 48.12 76.45 47.88C76.23 47.64 76.06 47.38 75.93 47.07C75.78 46.73 75.65 46.33 75.54 45.88C75.63 45.93 75.71 45.95 75.8 45.98C75.97 46.02 76.13 46.04 76.25 46.04C77.31 46.04 78.33 45.67 79.31 44.95C80.3 44.22 81.23 43.28 82.1 42.13C82.97 40.98 83.78 39.71 84.53 38.32C85.29 36.94 85.96 35.58 86.55 34.26C87.14 32.93 87.64 31.73 88.06 30.63C88.48 29.54 88.8 28.72 89.01 28.18C88.92 27.92 88.89 27.74 88.89 27.63C89.15 27.63 89.43 27.64 89.74 27.67C90.05 27.69 90.34 27.78 90.62 27.93C90.9 28.08 91.14 28.3 91.33 28.59C91.53 28.88 91.62 29.3 91.62 29.84C91.62 30.11 91.62 30.53 91.65 31.06C91.67 31.6 91.69 32.2 91.7 32.85C91.71 33.51 91.72 34.19 91.74 34.9C91.76 35.61 91.78 36.29 91.79 36.94C91.79 37.58 91.8 38.15 91.82 38.65C91.83 39.14 91.84 39.51 91.84 39.74C91.87 40.49 91.95 41.14 92.1 41.71Z" fill="#6B77E5" fill-opacity="1.000000" fill-rule="nonzero"/>
	<path d="M61.96 29.53C61.81 33.38 60.23 35.97 58.42 35.9C56.6 35.83 55.24 33.12 55.39 29.27C55.54 25.42 58.98 21.97 58.98 21.97C58.98 21.97 62.11 25.68 61.96 29.53Z" fill="#37393F" fill-opacity="1.000000" fill-rule="nonzero"/>
	<path d="M66.29 28.26C66.27 28.41 65.82 32.01 63.58 34.12C62.52 35.14 61.36 35.88 60.34 36.21C59.25 36.57 58.35 36.45 57.82 35.88C56.77 34.78 57.66 32.32 59.89 30.21C62.12 28.1 65.73 27.85 65.89 27.84L66.34 27.81L66.29 28.26ZM58.36 35.36C58.69 35.71 59.31 35.75 60.11 35.49C61.02 35.2 62.08 34.52 63.06 33.58C64.65 32.08 65.26 29.67 65.46 28.64C64.43 28.79 61.98 29.26 60.41 30.76C58.99 32.1 58.11 33.58 58.11 34.62C58.11 34.93 58.2 35.18 58.36 35.36Z" fill="#37393F" fill-opacity="1.000000" fill-rule="nonzero"/>
	<path d="M58.98 35.92C58.64 36.23 58.18 36.38 57.64 36.35C56.39 36.29 54.79 35.31 53.37 33.72C51.31 31.43 51.15 27.81 51.14 27.66L51.12 27.2L51.57 27.27C51.72 27.28 55.3 27.83 57.36 30.11C58.75 31.65 59.54 33.25 59.54 34.49C59.55 35.09 59.36 35.59 58.98 35.92ZM53.93 33.21C55.21 34.63 56.64 35.55 57.68 35.6C58.02 35.62 58.29 35.54 58.48 35.37C58.69 35.18 58.79 34.88 58.79 34.5C58.79 33.45 58.05 32.01 56.81 30.62C55.36 29 52.96 28.33 51.94 28.11C52.06 29.13 52.47 31.58 53.93 33.21Z" fill="#37393F" fill-opacity="1.000000" fill-rule="nonzero"/>
	<path d="M59.03 28.16C59.03 28 58.9 27.87 58.73 27.86C58.56 27.85 58.43 27.98 58.42 28.14L57.61 48.15C57.61 48.16 57.61 48.16 57.61 48.16C57.61 48.32 57.74 48.46 57.91 48.47C58.08 48.48 58.21 48.34 58.22 48.17L59.03 28.16Z" fill="#37393F" fill-opacity="1.000000" fill-rule="nonzero"/>
	<path d="M70.87 33.45C70.87 33.43 70.87 33.41 70.86 33.38C70.83 33.22 70.66 33.12 70.5 33.16C70.37 33.18 58.09 36.28 57.66 46.97C57.66 46.98 57.66 46.98 57.66 46.98C57.66 47.14 57.79 47.28 57.95 47.29C58.12 47.3 58.26 47.16 58.26 46.99C58.68 36.75 70.51 33.77 70.63 33.74C70.78 33.71 70.87 33.59 70.87 33.45Z" fill="#37393F" fill-opacity="1.000000" fill-rule="nonzero"/>
	<path d="M67.19 39.94C67.19 39.93 67.19 39.92 67.19 39.9C67.16 39.73 67.01 39.61 66.85 39.64C66.76 39.65 57.91 40.93 57.64 47.77L57.64 47.78C57.64 47.94 57.76 48.07 57.93 48.08C58.1 48.09 58.24 47.96 58.25 47.79C58.5 41.46 66.85 40.25 66.93 40.24C67.08 40.22 67.19 40.1 67.19 39.94Z" fill="#37393F" fill-opacity="1.000000" fill-rule="nonzero"/>
	<path d="M58.28 46.44C58.28 36.17 46.71 32.24 46.59 32.2C46.43 32.15 46.26 32.24 46.21 32.4C46.16 32.56 46.24 32.73 46.4 32.78C46.52 32.82 58.09 36.74 57.67 46.98C57.67 46.99 57.67 46.99 57.67 46.99C57.67 47.15 57.8 47.29 57.96 47.29C58.13 47.3 58.26 47.17 58.27 47C58.28 46.81 58.28 46.62 58.28 46.44Z" fill="#37393F" fill-opacity="1.000000" fill-rule="nonzero"/>
	<path d="M58.25 47.48C58.25 40.89 49.79 38.98 49.71 38.96C49.54 38.92 49.38 39.03 49.35 39.19C49.31 39.36 49.42 39.51 49.58 39.55C49.66 39.57 57.86 41.42 57.64 47.77L57.64 47.78C57.64 47.94 57.76 48.07 57.93 48.08C58.1 48.09 58.24 47.96 58.25 47.79C58.25 47.69 58.25 47.58 58.25 47.48Z" fill="#37393F" fill-opacity="1.000000" fill-rule="nonzero"/>
	<path d="M72.73 33.54C72.69 34.73 71.68 35.66 70.49 35.62C69.32 35.58 68.41 34.63 68.41 33.37C68.45 32.18 69.46 31.25 70.66 31.3C71.82 31.34 72.73 32.29 72.73 33.46L72.73 33.54ZM70.51 34.79C71.25 34.81 71.86 34.24 71.9 33.51L72.32 33.45L71.9 33.45C71.9 32.74 71.34 32.15 70.62 32.12C69.89 32.09 69.27 32.67 69.23 33.45C69.23 34.17 69.8 34.76 70.51 34.79Z" fill="#37393F" fill-opacity="1.000000" fill-rule="nonzero"/>
	<path d="M48.66 32.58C48.63 33.16 48.39 33.69 47.96 34.08C47.54 34.47 46.98 34.67 46.4 34.65C45.24 34.61 44.32 33.66 44.32 32.41C44.35 31.82 44.59 31.3 45.02 30.9C45.44 30.51 46 30.31 46.58 30.33C47.74 30.37 48.66 31.32 48.66 32.49L48.66 32.58ZM46.44 33.82C46.79 33.84 47.14 33.71 47.4 33.47C47.66 33.23 47.81 32.9 47.83 32.54L48.25 32.49L47.83 32.49C47.83 31.77 47.27 31.19 46.55 31.15C46.2 31.13 45.86 31.26 45.6 31.5C45.34 31.74 45.18 32.07 45.17 32.49C45.16 33.2 45.72 33.79 46.44 33.82Z" fill="#37393F" fill-opacity="1.000000" fill-rule="nonzero"/>
	<path d="M68.63 40.02C68.6 40.98 67.78 41.73 66.81 41.69C65.85 41.65 65.1 40.84 65.14 39.87C65.18 38.91 65.99 38.15 66.96 38.2C67.92 38.23 68.67 39.05 68.63 40.02Z" fill="#37393F" fill-opacity="1.000000" fill-rule="nonzero"/>
	<path d="M51.39 39.33C51.35 40.29 50.54 41.05 49.57 41C48.6 40.96 47.85 40.15 47.9 39.18C47.93 38.22 48.75 37.46 49.71 37.51C50.68 37.54 51.42 38.36 51.39 39.33Z" fill="#37393F" fill-opacity="1.000000" fill-rule="nonzero"/>
</svg>
