<svg width="170.449219" height="44.180908" viewBox="0 0 170.449 44.1809" fill="none" xmlns="http://www.w3.org/2000/svg" xmlns:xlink="http://www.w3.org/1999/xlink">
	<desc>
			Created with Pixso.
	</desc>
	<defs/>
	<path d="M36.3 44.18L8.32 44.18C3.72 44.18 0 40.49 0 35.93L0 8.24C0 3.68 3.72 0 8.32 0L36.3 0C40.9 0 44.62 3.68 44.62 8.24L44.62 35.93C44.62 40.49 40.9 44.18 36.3 44.18Z" fill="#40DDB6" fill-opacity="1.000000" fill-rule="nonzero"/>
	<path d="M30.35 22.49C31.14 23.48 31.55 24.63 31.55 25.93C31.55 27.84 30.9 29.34 29.62 30.41C28.33 31.47 26.48 32.02 24.08 32.02L13.6 32.02L13.6 9.7L23.83 9.7C26.13 9.7 27.9 10.2 29.15 11.19C30.4 12.18 31.03 13.59 31.03 15.41C31.03 16.76 30.66 17.88 29.94 18.78C29.22 19.68 28.28 20.25 27.1 20.53C28.48 20.85 29.55 21.5 30.35 22.49ZM19.04 18.83L22.62 18.83C24.51 18.83 25.46 18.03 25.46 16.43C25.46 14.83 24.49 14.03 22.55 14.03L19.04 14.03L19.04 18.83ZM25.96 25.18C25.96 24.38 25.7 23.76 25.17 23.3C24.64 22.85 23.88 22.63 22.91 22.63L19.06 22.63L19.06 27.64L22.95 27.64C24.95 27.63 25.96 26.82 25.96 25.18Z" fill="#FFFFFF" fill-opacity="1.000000" fill-rule="nonzero"/>
	<path d="M70.48 32.02L65.6 23.59L64.37 23.59L64.37 32.02L58.91 32.02L58.91 9.7L68.22 9.7C70 9.7 71.51 10 72.74 10.61C73.98 11.22 74.9 12.06 75.52 13.13C76.14 14.19 76.44 15.4 76.44 16.78C76.44 18.4 75.99 19.78 75.09 20.92C74.18 22.05 72.88 22.83 71.15 23.25L76.5 32.03L70.48 32.03L70.48 32.02ZM64.37 19.9L67.74 19.9C68.82 19.9 69.62 19.67 70.12 19.19C70.63 18.72 70.9 18.02 70.9 17.09C70.9 16.2 70.63 15.51 70.11 15C69.59 14.5 68.8 14.24 67.74 14.24L64.37 14.24L64.37 19.9Z" fill="#37393F" fill-opacity="1.000000" fill-rule="nonzero"/>
	<path d="M101.12 27.96L92.67 27.96L91.27 32.03L85.54 32.03L93.8 9.87L100.08 9.87L108.34 32.03L102.54 32.03L101.12 27.96ZM99.72 23.84L96.92 15.64L94.08 23.84L99.72 23.84Z" fill="#37393F" fill-opacity="1.000000" fill-rule="nonzero"/>
	<path d="M138.44 32.02L132.98 32.02L123.86 18.32L123.86 32.02L118.4 32.02L118.4 9.7L123.86 9.7L132.98 23.53L132.98 9.7L138.44 9.7L138.44 32.02Z" fill="#37393F" fill-opacity="1.000000" fill-rule="nonzero"/>
	<path d="M169.03 26.64C168.08 28.33 166.72 29.66 164.95 30.61C163.17 31.56 161.09 32.03 158.68 32.03L150.17 32.03L150.17 9.71L158.68 9.71C161.11 9.71 163.21 10.17 164.96 11.1C166.73 12.03 168.08 13.33 169.03 15.01C169.98 16.7 170.44 18.63 170.44 20.83C170.44 23 169.97 24.94 169.03 26.64ZM163.16 25.52C164.33 24.41 164.93 22.83 164.93 20.82C164.93 18.79 164.33 17.23 163.16 16.11C161.98 15 160.33 14.44 158.19 14.44L155.62 14.44L155.62 27.19L158.19 27.19C160.33 27.19 161.98 26.64 163.16 25.52Z" fill="#37393F" fill-opacity="1.000000" fill-rule="nonzero"/>
</svg>
