<svg width="103.307617" height="98.969971" viewBox="0 0 103.308 98.97" fill="none" xmlns="http://www.w3.org/2000/svg" xmlns:xlink="http://www.w3.org/1999/xlink">
	<desc>
			Created with Pixso.
	</desc>
	<defs/>
	<path d="M88.37 83.02C88.54 83.01 88.7 82.9 88.76 82.74C90.89 77.55 94.08 62.04 94.1 57.94C94.18 40.28 92.46 35.76 86.78 20.8L85.81 18.24C85.72 18.01 85.46 17.88 85.23 17.97C85 18.06 84.87 18.32 84.96 18.55L85.93 21.11C91.57 35.95 93.27 40.44 93.19 57.93C93.17 61.96 90.02 77.26 87.91 82.39C87.81 82.63 87.93 82.89 88.16 82.98C88.23 83.01 88.29 83.02 88.37 83.02Z" fill="#40DDB6" fill-opacity="1.000000" fill-rule="nonzero"/>
	<path d="M93.18 62.89C93.22 62.89 93.27 62.88 93.31 62.86C93.55 62.77 93.67 62.52 93.58 62.28C92.62 59.66 90.28 57.28 88.73 55.7L88.4 55.36C87.55 54.49 85.55 52.14 84.97 51.08C84.7 50.59 84.44 50.14 84.2 49.7C82.48 46.68 81.46 44.85 81.04 39.86C81.02 39.61 80.81 39.41 80.55 39.45C80.3 39.47 80.11 39.69 80.14 39.94C80.58 45.13 81.7 47.12 83.41 50.14C83.65 50.57 83.91 51.03 84.18 51.52C84.81 52.66 86.85 55.06 87.76 55.99L88.09 56.33C89.68 57.94 91.84 60.15 92.73 62.59C92.81 62.78 92.99 62.9 93.18 62.89Z" fill="#40DDB6" fill-opacity="1.000000" fill-rule="nonzero"/>
	<path d="M93.53 45.46C93.68 45.46 93.83 45.37 93.9 45.21C95.24 42.59 96.57 39.9 97.83 37.25C99.21 34.36 100.49 31.29 99.74 28.25C99.68 28.01 99.44 27.86 99.2 27.92C98.96 27.98 98.8 28.23 98.87 28.47C99.54 31.22 98.32 34.12 97.02 36.85C95.76 39.5 94.44 42.18 93.1 44.8C92.98 45.02 93.07 45.29 93.3 45.4C93.38 45.46 93.45 45.46 93.53 45.46Z" fill="#40DDB6" fill-opacity="1.000000" fill-rule="nonzero"/>
	<path d="M86.72 9.38C89.13 11.52 89.35 15.21 87.21 17.62C85.07 20.04 81.38 20.26 78.97 18.11C76.56 15.97 76.34 12.28 78.48 9.87C80.62 7.46 84.31 7.24 86.72 9.38Z" fill="#40DDB6" fill-opacity="1.000000" fill-rule="evenodd"/>
	<path d="M93.85 24.91C93.99 27.36 96.09 29.24 98.55 29.1C101 28.96 102.88 26.85 102.74 24.4C102.59 21.95 100.49 20.07 98.04 20.21C95.58 20.35 93.71 22.46 93.85 24.91Z" fill="#40DDB6" fill-opacity="1.000000" fill-rule="nonzero"/>
	<path d="M75.92 36.46C76.07 38.91 78.17 40.79 80.63 40.65C83.08 40.51 84.96 38.41 84.82 35.95C84.68 33.5 82.57 31.62 80.12 31.76C77.66 31.9 75.78 34 75.92 36.46Z" fill="#40DDB6" fill-opacity="1.000000" fill-rule="nonzero"/>
	<path d="M81.36 33C81.58 32.99 81.75 32.83 81.78 32.62C81.9 31.79 82.33 30.12 82.69 29.32C82.79 29.09 82.69 28.82 82.46 28.72C82.23 28.63 81.96 28.72 81.86 28.96C81.47 29.85 81.01 31.59 80.89 32.49C80.85 32.74 81.02 32.98 81.27 33.01C81.3 33 81.33 33.01 81.36 33Z" fill="#40DDB6" fill-opacity="1.000000" fill-rule="nonzero"/>
	<path d="M79.03 33.37C79.18 33.36 79.32 33.28 79.4 33.15C79.52 32.94 79.46 32.66 79.25 32.53C79.22 32.5 79.03 32.28 78.87 31.03C78.84 30.69 78.87 30.38 78.92 30.05C78.95 29.76 79 29.46 78.99 29.13C78.98 28.88 78.78 28.68 78.53 28.68C78.3 28.68 78.08 28.89 78.08 29.14C78.09 29.43 78.05 29.69 78.02 29.94C77.97 30.31 77.92 30.69 77.97 31.14C78.12 32.41 78.37 33.06 78.78 33.31C78.86 33.35 78.95 33.37 79.03 33.37Z" fill="#40DDB6" fill-opacity="1.000000" fill-rule="nonzero"/>
	<path d="M78.17 34.15C78.24 34.15 78.32 34.13 78.38 34.08C78.6 33.95 78.66 33.67 78.53 33.46C77.46 31.76 76.58 30.71 75.83 30.23C75.62 30.1 75.34 30.16 75.21 30.37C75.08 30.59 75.14 30.86 75.35 31C75.98 31.4 76.79 32.39 77.76 33.94C77.85 34.08 78.01 34.16 78.17 34.15Z" fill="#40DDB6" fill-opacity="1.000000" fill-rule="nonzero"/>
	<path d="M99.61 21.83C99.8 21.83 99.96 21.67 100 21.48C100.11 20.71 100.51 19.18 100.84 18.43C100.93 18.21 100.84 17.97 100.62 17.88C100.41 17.79 100.17 17.88 100.07 18.09C99.71 18.91 99.3 20.51 99.17 21.35C99.14 21.58 99.3 21.79 99.53 21.83C99.54 21.83 99.57 21.83 99.61 21.83Z" fill="#40DDB6" fill-opacity="1.000000" fill-rule="nonzero"/>
	<path d="M98.37 22.11C98.5 22.1 98.63 22.03 98.7 21.91C98.81 21.71 98.75 21.45 98.56 21.33C98.53 21.31 98.35 21.1 98.21 19.95C98.16 19.56 98.2 19.21 98.24 18.73C98.27 18.5 98.29 18.24 98.32 17.93C98.33 17.7 98.15 17.5 97.92 17.48C97.69 17.48 97.5 17.64 97.48 17.88C97.46 18.17 97.43 18.43 97.41 18.65C97.35 19.16 97.32 19.57 97.37 20.05C97.5 21.22 97.73 21.82 98.11 22.05C98.2 22.1 98.29 22.12 98.37 22.11Z" fill="#40DDB6" fill-opacity="1.000000" fill-rule="nonzero"/>
	<path d="M97.57 22.83C97.64 22.83 97.7 22.81 97.76 22.77C97.96 22.65 98.02 22.39 97.9 22.19C96.92 20.63 96.11 19.66 95.42 19.22C95.22 19.1 94.96 19.16 94.84 19.35C94.71 19.54 94.78 19.8 94.96 19.93C95.54 20.29 96.29 21.21 97.18 22.64C97.27 22.77 97.41 22.84 97.57 22.83Z" fill="#40DDB6" fill-opacity="1.000000" fill-rule="nonzero"/>
	<path d="M80.13 9.53C80.21 9.52 80.28 9.51 80.35 9.46C80.56 9.32 80.62 9.04 80.48 8.84C80.01 8.13 79.22 6.62 78.95 5.78C78.87 5.54 78.61 5.41 78.37 5.49C78.13 5.58 78.01 5.83 78.09 6.07C78.39 6.98 79.22 8.58 79.73 9.35C79.82 9.47 79.97 9.54 80.13 9.53Z" fill="#40DDB6" fill-opacity="1.000000" fill-rule="nonzero"/>
	<path d="M79.44 10.41C79.48 10.41 79.52 10.4 79.55 10.39C79.8 10.34 79.96 10.1 79.91 9.86C79.86 9.61 79.61 9.45 79.38 9.51C79.34 9.51 79.04 9.47 78.1 8.64C77.84 8.42 77.66 8.16 77.47 7.88C77.31 7.64 77.14 7.39 76.9 7.14C76.73 6.96 76.45 6.95 76.26 7.13C76.08 7.3 76.07 7.58 76.24 7.77C76.44 7.97 76.58 8.19 76.73 8.4C76.95 8.71 77.17 9.03 77.51 9.33C78.39 10.09 78.99 10.43 79.44 10.41Z" fill="#40DDB6" fill-opacity="1.000000" fill-rule="nonzero"/>
	<path d="M79.37 11.56C79.56 11.56 79.73 11.43 79.78 11.24C79.85 10.99 79.71 10.74 79.47 10.67C77.55 10.13 76.19 9.93 75.32 10.08C75.07 10.12 74.91 10.35 74.94 10.6C74.99 10.85 75.22 11.02 75.47 10.98C76.2 10.85 77.46 11.05 79.23 11.55C79.27 11.56 79.32 11.56 79.37 11.56Z" fill="#40DDB6" fill-opacity="1.000000" fill-rule="nonzero"/>
	<path d="M91.15 70.79C90.1 70.75 88.21 70.09 87.52 69.11C87.38 68.91 86.66 67.84 86.5 67.04C86.33 66.11 86.33 65.33 86.5 64.25C86.75 62.76 86.8 62.69 87.06 62.6C87.22 62.53 87.41 62.46 88.81 63.43C90.48 64.58 92.05 67.39 91.8 70.09C91.79 70.23 91.72 70.34 91.62 70.41C91.58 70.63 91.41 70.79 91.2 70.8C91.17 70.79 91.17 70.79 91.15 70.79ZM87.4 64.4C87.24 65.38 87.24 66.05 87.39 66.87C87.47 67.32 87.89 68.06 88.26 68.6C88.67 69.17 89.98 69.74 90.9 69.86C91.05 67.57 89.69 65.15 88.3 64.18C88.2 64.11 87.82 63.88 87.52 63.69C87.48 63.94 87.42 64.24 87.4 64.4Z" fill="#40DDB6" fill-opacity="1.000000" fill-rule="nonzero"/>
	<path d="M81.93 54.22C81.71 54.2 80.57 54.07 79.93 53.7C79.2 53.28 78.67 52.83 78.04 52.09C77.2 51.08 77.15 51.01 77.24 50.75C77.3 50.61 77.36 50.44 78.83 50.05C80.58 49.58 83.39 50.15 85.07 51.89C85.15 51.98 85.18 52.09 85.18 52.19C85.32 52.35 85.32 52.58 85.18 52.73C84.6 53.36 83.27 54.16 82.22 54.22C82.13 54.23 82.03 54.23 81.93 54.22ZM79.04 50.83C78.94 50.86 78.56 50.97 78.26 51.07C78.37 51.21 78.52 51.38 78.67 51.56C79.24 52.24 79.69 52.62 80.34 53C80.7 53.2 81.44 53.35 82.02 53.41C82.65 53.48 83.79 52.91 84.41 52.35C82.94 50.93 80.5 50.45 79.04 50.83Z" fill="#40DDB6" fill-opacity="1.000000" fill-rule="nonzero"/>
	<path d="M84.65 51.96C84.55 51.92 84.47 51.83 84.44 51.71C83.79 49.39 84.72 46.68 86 45.39C87.07 44.31 87.27 44.35 87.41 44.38C87.66 44.42 87.72 44.47 88.16 45.74C88.48 46.66 88.61 47.35 88.61 48.18C88.61 48.91 88.13 49.97 88.05 50.17C87.6 51.14 86.05 52.02 85.13 52.22C85.11 52.23 85.09 52.23 85.07 52.23C84.87 52.25 84.7 52.13 84.65 51.96ZM86.57 45.96C85.5 47.03 84.69 49.38 85.18 51.37C85.98 51.11 87.04 50.4 87.3 49.83C87.54 49.31 87.79 48.59 87.79 48.18C87.79 47.43 87.68 46.85 87.39 46.02C87.32 45.84 87.24 45.62 87.16 45.41C86.93 45.62 86.64 45.89 86.57 45.96Z" fill="#40DDB6" fill-opacity="1.000000" fill-rule="nonzero"/>
	<path d="M93.75 54.31C93.55 54.27 93.41 54.08 93.42 53.88C93.35 53.8 93.31 53.68 93.33 53.57C93.65 51.18 95.59 49.06 97.27 48.39C98.69 47.83 98.84 47.93 98.96 48.01C99.18 48.16 99.21 48.23 99.12 49.57C99.05 50.54 98.89 51.21 98.56 51.98C98.27 52.63 97.49 53.37 97.25 53.59C96.7 54.07 95.71 54.32 94.85 54.36C94.44 54.39 94.04 54.37 93.75 54.31ZM97.57 49.14C96.17 49.69 94.49 51.53 94.16 53.55C94.99 53.62 96.24 53.41 96.71 52.98C97.14 52.59 97.66 52.03 97.82 51.65C98.12 50.96 98.25 50.39 98.31 49.5C98.32 49.32 98.34 49.07 98.35 48.86C98.04 48.97 97.67 49.1 97.57 49.14Z" fill="#40DDB6" fill-opacity="1.000000" fill-rule="nonzero"/>
	<path d="M96.75 38.84C96.58 38.74 96.51 38.54 96.59 38.37C96.56 38.27 96.56 38.16 96.61 38.07C97.61 36.1 99.9 34.83 101.57 34.74C101.59 34.74 101.6 34.74 101.62 34.74C103.02 34.68 103.14 34.82 103.22 34.93C103.37 35.12 103.35 35.2 102.88 36.33C102.52 37.16 102.18 37.7 101.66 38.26C101.19 38.76 100.22 39.18 100.04 39.26C99.82 39.35 99.57 39.4 99.29 39.41C98.39 39.47 97.32 39.18 96.75 38.84ZM101.64 35.49C100.21 35.57 98.23 36.64 97.33 38.31C98.03 38.63 99.19 38.81 99.72 38.58C100.21 38.38 100.83 38.04 101.09 37.76C101.56 37.25 101.85 36.79 102.17 36.03C102.26 35.82 102.34 35.63 102.4 35.49C102.09 35.48 101.74 35.48 101.64 35.49Z" fill="#40DDB6" fill-opacity="1.000000" fill-rule="nonzero"/>
	<path d="M96.3 38.61C95.44 38.46 93.97 37.72 93.52 36.84C93.42 36.66 92.95 35.71 92.91 35.04C92.88 34.26 92.96 33.63 93.22 32.76C93.57 31.58 93.62 31.52 93.85 31.47C93.98 31.43 94.15 31.4 95.2 32.34C96.43 33.47 97.41 35.94 96.9 38.11C96.87 38.22 96.81 38.31 96.72 38.35C96.67 38.5 96.54 38.61 96.38 38.62C96.36 38.61 96.33 38.61 96.3 38.61ZM93.94 32.97C93.71 33.75 93.63 34.3 93.66 34.98C93.68 35.36 93.94 36.01 94.18 36.49C94.45 37 95.45 37.61 96.19 37.82C96.57 35.96 95.72 33.83 94.69 32.89C94.62 32.82 94.34 32.58 94.11 32.41C94.05 32.59 93.99 32.81 93.94 32.97Z" fill="#40DDB6" fill-opacity="1.000000" fill-rule="nonzero"/>
	<path d="M85.06 26.96C84.8 26.83 83.92 26.37 83.5 25.86C83.01 25.27 82.7 24.7 82.39 23.86C81.98 22.68 81.98 22.62 82.14 22.44C82.23 22.33 82.34 22.2 83.74 22.35C85.41 22.52 87.65 23.93 88.54 25.98C88.58 26.08 88.57 26.18 88.54 26.28C88.6 26.46 88.53 26.66 88.35 26.75C87.91 26.97 87.21 27.15 86.51 27.19C85.98 27.2 85.45 27.15 85.06 26.96ZM83.66 23.08C83.56 23.07 83.2 23.05 82.9 23.04C82.96 23.21 83.03 23.41 83.09 23.6C83.37 24.37 83.63 24.85 84.07 25.38C84.31 25.68 84.9 26.05 85.38 26.28C85.91 26.54 87.07 26.42 87.79 26.15C87 24.44 85.05 23.22 83.66 23.08Z" fill="#40DDB6" fill-opacity="1.000000" fill-rule="nonzero"/>
	<path d="M88.04 25.96C87.96 25.9 87.89 25.81 87.89 25.7C87.64 23.48 88.88 21.15 90.24 20.18C91.37 19.36 91.56 19.42 91.67 19.46C91.91 19.54 91.93 19.62 92.16 20.82C92.32 21.7 92.32 22.34 92.2 23.11C92.09 23.76 91.56 24.6 91.39 24.84C90.84 25.66 89.29 26.23 88.43 26.27C88.22 26.28 88.06 26.15 88.04 25.96ZM90.68 20.77C89.54 21.59 88.45 23.61 88.62 25.5C89.37 25.38 90.44 24.9 90.77 24.41C91.08 23.96 91.41 23.35 91.47 22.98C91.58 22.29 91.58 21.75 91.42 20.93C91.38 20.71 91.34 20.51 91.32 20.35C91.06 20.52 90.76 20.72 90.68 20.77Z" fill="#40DDB6" fill-opacity="1.000000" fill-rule="nonzero"/>
	<path d="M91.61 70.25C91.43 70.11 91.39 69.85 91.51 69.66C91.49 69.54 91.51 69.41 91.58 69.3C93.16 67.1 96.19 66.01 98.2 66.24C99.89 66.43 100 66.63 100.08 66.77C100.21 67.02 100.2 67.11 99.41 68.38C98.83 69.31 98.32 69.9 97.58 70.48C96.94 70.98 95.69 71.31 95.45 71.38C95.33 71.41 95.19 71.43 95.04 71.44C93.89 71.49 92.34 70.84 91.61 70.25ZM98.11 67.13C96.42 66.95 93.79 67.87 92.41 69.71C93.19 70.22 94.55 70.66 95.24 70.49C95.87 70.33 96.66 70.04 97.03 69.75C97.69 69.24 98.13 68.73 98.65 67.89C98.75 67.74 98.89 67.49 99.03 67.28C98.66 67.21 98.23 67.15 98.11 67.13Z" fill="#40DDB6" fill-opacity="1.000000" fill-rule="nonzero"/>
	<path d="M49.48 98.97C63.02 98.97 75.66 93.61 85.07 83.87L83.56 82.41C74.55 91.74 62.45 96.86 49.49 96.86C23.37 96.86 2.11 75.6 2.11 49.48C2.11 23.35 23.35 2.09 49.48 2.09C56.35 2.09 62.97 3.52 69.16 6.35L70.03 4.45C63.57 1.49 56.65 0 49.48 0C22.19 0 0 22.19 0 49.48C0 76.78 22.19 98.97 49.48 98.97Z" fill="#6B77E5" fill-opacity="1.000000" fill-rule="nonzero"/>
	<path d="M18.95 34.86C18.27 34.48 17.73 33.96 17.34 33.28C16.95 32.6 16.74 31.84 16.74 31.01C16.74 30.17 16.94 29.41 17.34 28.74C17.73 28.07 18.27 27.55 18.95 27.17C19.62 26.8 20.36 26.61 21.16 26.61C21.98 26.61 22.72 26.8 23.38 27.17C24.06 27.55 24.59 28.07 24.98 28.74C25.37 29.41 25.56 30.17 25.56 31.01C25.56 31.84 25.36 32.6 24.97 33.28C24.58 33.96 24.04 34.47 23.38 34.86C22.71 35.23 21.97 35.42 21.16 35.42C20.35 35.42 19.61 35.23 18.95 34.86ZM22.81 32.82C23.22 32.37 23.43 31.76 23.43 31.01C23.43 30.26 23.22 29.65 22.81 29.2C22.4 28.74 21.85 28.52 21.16 28.52C20.47 28.52 19.92 28.74 19.51 29.2C19.1 29.64 18.89 30.26 18.89 31.02C18.89 31.78 19.1 32.39 19.51 32.84C19.92 33.3 20.47 33.52 21.16 33.52C21.85 33.51 22.4 33.28 22.81 32.82Z" fill="#37393F" fill-opacity="1.000000" fill-rule="nonzero"/>
	<path d="M37.24 35.34L35.45 32.09L34.95 32.09L34.95 35.34L32.85 35.34L32.85 26.74L36.36 26.74C37.04 26.74 37.62 26.85 38.09 27.09C38.57 27.33 38.93 27.65 39.16 28.06C39.39 28.47 39.52 28.94 39.52 29.45C39.52 30.02 39.36 30.52 39.04 30.98C38.72 31.43 38.24 31.75 37.61 31.93L39.6 35.34L37.24 35.34ZM34.95 30.6L36.25 30.6C36.63 30.6 36.92 30.51 37.11 30.32C37.3 30.13 37.4 29.86 37.4 29.53C37.4 29.2 37.3 28.95 37.11 28.75C36.92 28.56 36.63 28.47 36.25 28.47L34.95 28.47L34.95 30.6Z" fill="#37393F" fill-opacity="1.000000" fill-rule="nonzero"/>
	<path d="M52.67 29.45C52.52 29.17 52.29 28.95 52 28.79C51.7 28.64 51.37 28.57 50.97 28.57C50.3 28.57 49.75 28.79 49.34 29.24C48.93 29.69 48.73 30.28 48.73 31.02C48.73 31.82 48.94 32.43 49.37 32.88C49.8 33.32 50.39 33.55 51.14 33.55C51.66 33.55 52.1 33.41 52.44 33.15C52.8 32.9 53.06 32.52 53.22 32.03L50.56 32.03L50.56 30.49L55.12 30.49L55.12 32.44C54.97 32.97 54.7 33.45 54.33 33.9C53.95 34.35 53.48 34.71 52.91 34.99C52.34 35.27 51.69 35.41 50.97 35.41C50.13 35.41 49.37 35.22 48.7 34.85C48.03 34.47 47.51 33.96 47.14 33.3C46.77 32.64 46.58 31.88 46.58 31.03C46.58 30.19 46.77 29.43 47.14 28.76C47.51 28.09 48.03 27.57 48.69 27.2C49.35 26.82 50.11 26.64 50.96 26.64C51.98 26.64 52.85 26.89 53.56 27.39C54.26 27.89 54.74 28.57 54.96 29.45L52.67 29.45Z" fill="#37393F" fill-opacity="1.000000" fill-rule="nonzero"/>
	<path d="M22.45 49.83L19.24 49.83L18.72 51.35L16.53 51.35L19.64 42.75L22.07 42.75L25.18 51.35L22.96 51.35L22.45 49.83ZM21.91 48.22L20.84 45.07L19.79 48.22L21.91 48.22Z" fill="#37393F" fill-opacity="1.000000" fill-rule="nonzero"/>
	<path d="M39.95 51.36L37.85 51.36L34.35 46.05L34.35 51.36L32.25 51.36L32.25 42.75L34.35 42.75L37.85 48.08L37.85 42.75L39.95 42.75L39.95 51.36Z" fill="#37393F" fill-opacity="1.000000" fill-rule="nonzero"/>
	<path d="M49.68 42.75L49.68 51.36L47.59 51.36L47.59 42.75L49.68 42.75Z" fill="#37393F" fill-opacity="1.000000" fill-rule="nonzero"/>
	<path d="M17.3 60.79C17.66 60.12 18.18 59.6 18.83 59.23C19.48 58.85 20.23 58.66 21.07 58.66C22.09 58.66 22.97 58.93 23.69 59.48C24.42 60.01 24.9 60.75 25.15 61.68L22.85 61.68C22.68 61.32 22.44 61.04 22.12 60.86C21.81 60.67 21.45 60.57 21.05 60.57C20.41 60.57 19.88 60.8 19.48 61.25C19.08 61.7 18.88 62.3 18.88 63.05C18.88 63.8 19.08 64.41 19.48 64.85C19.88 65.3 20.41 65.53 21.05 65.53C21.45 65.53 21.81 65.44 22.12 65.24C22.43 65.06 22.67 64.78 22.85 64.42L25.15 64.42C24.91 65.35 24.42 66.09 23.69 66.62C22.96 67.16 22.08 67.43 21.07 67.43C20.24 67.43 19.49 67.24 18.83 66.87C18.17 66.49 17.66 65.97 17.3 65.31C16.93 64.65 16.74 63.9 16.74 63.05C16.74 62.21 16.93 61.46 17.3 60.79Z" fill="#37393F" fill-opacity="1.000000" fill-rule="nonzero"/>
	<path d="M37.91 65.85L34.71 65.85L34.19 67.37L32 67.37L35.11 58.76L37.53 58.76L40.64 67.37L38.42 67.37L37.91 65.85ZM37.37 64.24L36.3 61.09L35.25 64.24L37.37 64.24Z" fill="#37393F" fill-opacity="1.000000" fill-rule="nonzero"/>
	<path d="M49.81 65.75L52.55 65.75L52.55 67.37L47.71 67.37L47.71 58.76L49.81 58.76L49.81 65.75Z" fill="#37393F" fill-opacity="1.000000" fill-rule="nonzero"/>
	<path d="M18.89 75.3C19.02 75.45 19.08 75.63 19.08 75.83C19.08 75.99 19.04 76.14 18.95 76.27C18.86 76.4 18.73 76.51 18.57 76.58C18.41 76.66 18.22 76.7 18 76.7L16.69 76.7L16.69 73.43L17.94 73.43C18.16 73.43 18.36 73.46 18.52 73.54C18.68 73.62 18.8 73.72 18.88 73.85C18.96 73.97 19.01 74.11 19.01 74.27C19.01 74.46 18.95 74.62 18.86 74.75C18.76 74.87 18.63 74.97 18.46 75.02C18.63 75.05 18.77 75.14 18.89 75.3ZM17.23 74.8L17.89 74.8C18.07 74.8 18.21 74.76 18.3 74.68C18.4 74.6 18.46 74.49 18.46 74.34C18.46 74.19 18.4 74.08 18.3 73.99C18.21 73.91 18.06 73.86 17.89 73.86L17.23 73.86L17.23 74.8ZM18.38 76.13C18.49 76.04 18.54 75.91 18.54 75.76C18.54 75.6 18.48 75.48 18.37 75.38C18.26 75.28 18.11 75.24 17.93 75.24L17.23 75.24L17.23 76.26L17.95 76.26C18.14 76.26 18.28 76.22 18.38 76.13Z" fill="#37393F" fill-opacity="1.000000" fill-rule="nonzero"/>
	<path d="M22.67 76.52C22.41 76.38 22.22 76.18 22.07 75.92C21.91 75.66 21.84 75.38 21.84 75.06C21.84 74.74 21.91 74.45 22.07 74.19C22.22 73.94 22.41 73.74 22.67 73.6C22.93 73.45 23.21 73.38 23.51 73.38C23.82 73.38 24.1 73.45 24.36 73.6C24.62 73.74 24.81 73.94 24.96 74.19C25.11 74.45 25.19 74.74 25.19 75.06C25.19 75.38 25.11 75.66 24.96 75.92C24.81 76.18 24.62 76.38 24.36 76.52C24.1 76.66 23.82 76.73 23.51 76.73C23.21 76.73 22.92 76.66 22.67 76.52ZM24.09 76.12C24.26 76.02 24.39 75.88 24.49 75.69C24.59 75.5 24.63 75.3 24.63 75.05C24.63 74.81 24.59 74.59 24.49 74.42C24.39 74.24 24.26 74.1 24.09 74C23.92 73.9 23.72 73.86 23.51 73.86C23.3 73.86 23.1 73.9 22.93 74C22.76 74.1 22.63 74.24 22.53 74.42C22.43 74.59 22.39 74.81 22.39 75.05C22.39 75.29 22.43 75.5 22.53 75.69C22.63 75.88 22.76 76.01 22.93 76.12C23.1 76.22 23.3 76.27 23.51 76.27C23.72 76.27 23.92 76.22 24.09 76.12Z" fill="#37393F" fill-opacity="1.000000" fill-rule="nonzero"/>
	<path d="M30.18 73.43L30.18 73.86L29.3 73.86L29.3 76.7L28.77 76.7L28.77 73.86L27.9 73.86L27.9 73.43L30.18 73.43Z" fill="#37393F" fill-opacity="1.000000" fill-rule="nonzero"/>
	<path d="M35.05 76.03L33.68 76.03L33.45 76.7L32.89 76.7L34.06 73.42L34.69 73.42L35.86 76.7L35.3 76.7L35.05 76.03ZM34.9 75.59L34.37 74.07L33.83 75.59L34.9 75.59Z" fill="#37393F" fill-opacity="1.000000" fill-rule="nonzero"/>
	<path d="M41.41 76.7L40.87 76.7L39.26 74.26L39.26 76.7L38.73 76.7L38.73 73.42L39.26 73.42L40.87 75.86L40.87 73.42L41.41 73.42L41.41 76.7Z" fill="#37393F" fill-opacity="1.000000" fill-rule="nonzero"/>
	<path d="M45.01 73.43L45.01 76.7L44.48 76.7L44.48 73.43L45.01 73.43Z" fill="#37393F" fill-opacity="1.000000" fill-rule="nonzero"/>
	<path d="M48.11 74.19C48.26 73.94 48.46 73.74 48.72 73.6C48.98 73.45 49.25 73.38 49.56 73.38C49.9 73.38 50.21 73.47 50.48 73.64C50.75 73.81 50.96 74.05 51.07 74.37L50.43 74.37C50.35 74.2 50.22 74.07 50.07 73.99C49.92 73.9 49.75 73.86 49.55 73.86C49.33 73.86 49.14 73.91 48.97 74.01C48.8 74.1 48.66 74.25 48.57 74.43C48.47 74.6 48.42 74.82 48.42 75.06C48.42 75.3 48.47 75.51 48.57 75.69C48.66 75.87 48.8 76.01 48.97 76.11C49.14 76.21 49.33 76.26 49.55 76.26C49.74 76.26 49.92 76.22 50.07 76.14C50.22 76.05 50.34 75.92 50.43 75.75L51.07 75.75C50.95 76.07 50.75 76.31 50.48 76.48C50.21 76.65 49.9 76.73 49.56 76.73C49.24 76.73 48.97 76.66 48.71 76.52C48.45 76.38 48.25 76.18 48.1 75.92C47.95 75.66 47.88 75.38 47.88 75.06C47.88 74.74 47.96 74.44 48.11 74.19Z" fill="#37393F" fill-opacity="1.000000" fill-rule="nonzero"/>
	<path d="M56.04 76.03L54.67 76.03L54.44 76.7L53.88 76.7L55.06 73.42L55.68 73.42L56.86 76.7L56.29 76.7L56.04 76.03ZM55.89 75.59L55.36 74.07L54.82 75.59L55.89 75.59Z" fill="#37393F" fill-opacity="1.000000" fill-rule="nonzero"/>
	<path d="M60.24 76.26L61.35 76.26L61.35 76.7L59.71 76.7L59.71 73.43L60.24 73.43L60.24 76.26Z" fill="#37393F" fill-opacity="1.000000" fill-rule="nonzero"/>
	<path d="M55.07 44.64L55.07 45.61L56.21 45.61L56.21 46.04L55.07 46.04L55.07 47.05L56.35 47.05L56.35 47.49L54.54 47.49L54.54 44.21L56.35 44.21L56.35 44.64L55.07 44.64Z" fill="#37393F" fill-opacity="1.000000" fill-rule="nonzero"/>
	<path d="M58.91 47.41C58.73 47.33 58.59 47.22 58.5 47.08C58.4 46.93 58.34 46.77 58.34 46.59L58.91 46.59C58.92 46.73 58.99 46.85 59.08 46.93C59.18 47.02 59.33 47.07 59.5 47.07C59.69 47.07 59.83 47.02 59.94 46.93C60.05 46.85 60.09 46.73 60.09 46.59C60.09 46.48 60.06 46.39 59.99 46.32C59.93 46.25 59.85 46.2 59.75 46.16C59.66 46.12 59.52 46.08 59.35 46.03C59.14 45.98 58.97 45.92 58.83 45.87C58.7 45.81 58.58 45.71 58.5 45.6C58.4 45.47 58.35 45.31 58.35 45.11C58.35 44.92 58.4 44.75 58.5 44.61C58.59 44.47 58.72 44.36 58.89 44.29C59.06 44.22 59.25 44.17 59.48 44.17C59.8 44.17 60.06 44.25 60.26 44.41C60.47 44.57 60.57 44.79 60.6 45.06L60 45.06C59.99 44.95 59.94 44.84 59.83 44.76C59.73 44.68 59.59 44.64 59.42 44.64C59.27 44.64 59.15 44.67 59.05 44.75C58.95 44.83 58.91 44.94 58.91 45.09C58.91 45.19 58.93 45.28 59 45.34C59.06 45.4 59.14 45.46 59.23 45.49C59.33 45.53 59.45 45.57 59.61 45.62C59.82 45.68 60 45.73 60.14 45.79C60.27 45.86 60.39 45.95 60.48 46.07C60.58 46.2 60.63 46.36 60.63 46.57C60.63 46.74 60.58 46.89 60.49 47.04C60.4 47.19 60.27 47.31 60.1 47.4C59.93 47.49 59.73 47.53 59.49 47.53C59.28 47.52 59.08 47.48 58.91 47.41Z" fill="#37393F" fill-opacity="1.000000" fill-rule="nonzero"/>
	<path d="M64.8 44.22L64.8 44.65L63.92 44.65L63.92 47.49L63.39 47.49L63.39 44.65L62.52 44.65L62.52 44.22L64.8 44.22Z" fill="#37393F" fill-opacity="1.000000" fill-rule="nonzero"/>
	<path d="M54.77 52.41C55.07 52.15 55.31 51.94 55.48 51.77C55.66 51.6 55.81 51.42 55.92 51.24C56.04 51.06 56.1 50.87 56.1 50.7C56.1 50.51 56.05 50.36 55.97 50.25C55.88 50.14 55.73 50.09 55.55 50.09C55.36 50.09 55.22 50.15 55.12 50.27C55.01 50.38 54.96 50.55 54.96 50.74L54.44 50.74C54.45 50.38 54.56 50.11 54.76 49.92C54.97 49.73 55.23 49.64 55.55 49.64C55.89 49.64 56.15 49.73 56.35 49.92C56.54 50.11 56.64 50.36 56.64 50.68C56.64 50.9 56.59 51.12 56.47 51.33C56.36 51.53 56.22 51.72 56.06 51.89C55.9 52.06 55.71 52.25 55.46 52.46L55.24 52.65L56.73 52.65L56.73 53.09L54.44 53.09L54.44 52.7L54.77 52.41Z" fill="#37393F" fill-opacity="1.000000" fill-rule="nonzero"/>
	<path d="M58.88 50.11C59.07 49.81 59.38 49.64 59.83 49.64C60.29 49.64 60.6 49.8 60.78 50.11C60.97 50.41 61.05 50.84 61.05 51.38C61.05 51.94 60.97 52.36 60.78 52.68C60.59 52.99 60.28 53.14 59.83 53.14C59.39 53.14 59.07 52.99 58.88 52.68C58.69 52.36 58.6 51.94 58.6 51.38C58.6 50.84 58.69 50.41 58.88 50.11ZM60.48 50.73C60.44 50.55 60.38 50.41 60.28 50.3C60.18 50.2 60.03 50.13 59.83 50.13C59.64 50.13 59.49 50.19 59.39 50.3C59.29 50.42 59.22 50.56 59.19 50.73C59.16 50.9 59.14 51.12 59.14 51.37C59.14 51.64 59.16 51.86 59.18 52.04C59.21 52.23 59.28 52.36 59.38 52.48C59.48 52.59 59.63 52.65 59.83 52.65C60.02 52.65 60.17 52.6 60.27 52.48C60.37 52.37 60.44 52.22 60.47 52.04C60.49 51.86 60.51 51.64 60.51 51.37C60.52 51.12 60.5 50.91 60.48 50.73Z" fill="#37393F" fill-opacity="1.000000" fill-rule="nonzero"/>
	<path d="M63.33 52.41C63.63 52.15 63.86 51.94 64.04 51.77C64.22 51.6 64.36 51.42 64.48 51.24C64.59 51.06 64.66 50.87 64.66 50.7C64.66 50.51 64.61 50.36 64.52 50.25C64.43 50.14 64.29 50.09 64.1 50.09C63.92 50.09 63.77 50.15 63.68 50.27C63.57 50.38 63.51 50.55 63.51 50.74L63 50.74C63.01 50.38 63.11 50.11 63.32 49.92C63.52 49.73 63.78 49.64 64.1 49.64C64.44 49.64 64.71 49.73 64.91 49.92C65.1 50.11 65.2 50.36 65.2 50.68C65.2 50.9 65.15 51.12 65.03 51.33C64.91 51.53 64.78 51.72 64.62 51.89C64.46 52.06 64.26 52.25 64.01 52.46L63.8 52.65L65.29 52.65L65.29 53.09L63 53.09L63 52.7L63.33 52.41Z" fill="#37393F" fill-opacity="1.000000" fill-rule="nonzero"/>
	<path d="M67.45 50.11C67.63 49.81 67.95 49.64 68.4 49.64C68.85 49.64 69.17 49.8 69.34 50.11C69.53 50.41 69.62 50.84 69.62 51.38C69.62 51.94 69.53 52.36 69.34 52.68C69.16 52.99 68.85 53.14 68.4 53.14C67.95 53.14 67.63 52.99 67.45 52.68C67.26 52.36 67.17 51.94 67.17 51.38C67.17 50.84 67.26 50.41 67.45 50.11ZM69.04 50.73C69.01 50.55 68.94 50.41 68.85 50.3C68.75 50.2 68.6 50.13 68.4 50.13C68.2 50.13 68.05 50.19 67.95 50.3C67.86 50.42 67.79 50.56 67.76 50.73C67.73 50.9 67.71 51.12 67.71 51.37C67.71 51.64 67.72 51.86 67.75 52.04C67.78 52.23 67.85 52.36 67.95 52.48C68.04 52.59 68.2 52.65 68.39 52.65C68.59 52.65 68.74 52.6 68.84 52.48C68.93 52.37 69.01 52.22 69.03 52.04C69.06 51.86 69.08 51.64 69.08 51.37C69.09 51.12 69.07 50.91 69.04 50.73Z" fill="#37393F" fill-opacity="1.000000" fill-rule="nonzero"/>
</svg>
