<svg width="48.000000" height="48.000000" viewBox="0 0 48 48" fill="none" xmlns="http://www.w3.org/2000/svg" xmlns:xlink="http://www.w3.org/1999/xlink">
	<desc>
			Created with Pixso.
	</desc>
	<defs/>
	<path d="M40.5 40.5L7.5 40.5" stroke="#FFFFFF" stroke-opacity="1.000000" stroke-width="2.000000" stroke-linejoin="round" stroke-linecap="round"/>
	<path d="M27 15C27 14.17 27.67 13.5 28.5 13.5L36 13.5C36.82 13.5 37.5 14.17 37.5 15L37.5 33C37.5 33.82 36.82 34.5 36 34.5L28.5 34.5C27.67 34.5 27 33.82 27 33L27 15Z" stroke="#FFFFFF" stroke-opacity="1.000000" stroke-width="2.000000" stroke-linejoin="round"/>
	<path d="M19.5 6C20.32 6 21 6.67 21 7.5L21 33C21 33.82 20.32 34.5 19.5 34.5L12 34.5C11.17 34.5 10.5 33.82 10.5 33L10.5 7.5C10.5 6.67 11.17 6 12 6L19.5 6Z" stroke="#FFFFFF" stroke-opacity="1.000000" stroke-width="2.000000" stroke-linejoin="round"/>
</svg>
