<svg width="35.524414" height="35.205322" viewBox="0 0 35.5244 35.2053" fill="none" xmlns="http://www.w3.org/2000/svg" xmlns:xlink="http://www.w3.org/1999/xlink">
	<desc>
			Created with Pixso.
	</desc>
	<defs/>
	<path d="M23.5 34.12L10.66 34.12C8.31 34.12 6.42 32.23 6.42 29.88L6.42 9" stroke="#FFFFFF" stroke-opacity="1.000000" stroke-width="2.000000"/>
	<path d="M3.58 1L25.28 1C27.54 1 29.4 2.84 29.4 5.12L29.4 14.38" stroke="#FFFFFF" stroke-opacity="1.000000" stroke-width="2.000000"/>
	<path d="M1 8.28L1 3.7C1 2.2 2.2 1 3.7 1C5.2 1 6.41 2.2 6.41 3.7L6.41 8.28L1 8.28Z" stroke="#FFFFFF" stroke-opacity="1.000000" stroke-width="2.000000"/>
	<path d="M33.09 23.81L32.66 25.97L30.52 26.39L28.7 27.61L26.87 26.39L24.73 25.97L24.29 23.81L23.08 22L24.29 20.17L24.73 18.02L26.87 17.59L28.7 16.37L30.52 17.59L32.66 18.02L33.09 20.17L34.32 22L33.09 23.81Z" stroke="#FFFFFF" stroke-opacity="1.000000" stroke-width="2.000000"/>
	<path d="M31.81 25.85L31.81 33.33L28.71 31.25L25.61 33.33L25.61 25.85" stroke="#FFFFFF" stroke-opacity="1.000000" stroke-width="2.000000"/>
	<path d="M12.07 7.25L22.28 7.25" stroke="#FFFFFF" stroke-opacity="1.000000" stroke-width="2.000000"/>
	<path d="M12.07 12.5L22.28 12.5" stroke="#FFFFFF" stroke-opacity="1.000000" stroke-width="2.000000"/>
	<path d="M12.07 17.68L22.28 17.68" stroke="#FFFFFF" stroke-opacity="1.000000" stroke-width="2.000000"/>
	<path d="M12.07 22.77L18.83 22.77" stroke="#FFFFFF" stroke-opacity="1.000000" stroke-width="2.000000"/>
	<path d="M12.07 27.96L18.83 27.96" stroke="#FFFFFF" stroke-opacity="1.000000" stroke-width="2.000000"/>
</svg>
