<svg width="42.000000" height="42.000000" viewBox="0 0 42 42" fill="none" xmlns="http://www.w3.org/2000/svg" xmlns:xlink="http://www.w3.org/1999/xlink">
	<desc>
			Created with Pixso.
	</desc>
	<defs/>
	<path d="M24.93 5.25L24.93 14.43L34.12 14.43" stroke="#FFFFFF" stroke-opacity="1.000000" stroke-width="2.000000" stroke-linejoin="round" stroke-linecap="round"/>
	<path d="M24.28 21L28.21 24.93L24.28 28.87" stroke="#FFFFFF" stroke-opacity="1.000000" stroke-width="2.000000" stroke-linejoin="round" stroke-linecap="round"/>
	<path d="M17.71 21L13.78 24.93L17.71 28.87" stroke="#FFFFFF" stroke-opacity="1.000000" stroke-width="2.000000" stroke-linejoin="round" stroke-linecap="round"/>
	<path d="M33.74 36.36C33.98 36.11 34.12 35.78 34.12 35.43L34.12 14.43L24.93 5.25L9.18 5.25C8.83 5.25 8.5 5.38 8.25 5.63C8.01 5.88 7.87 6.21 7.87 6.56L7.87 35.43C7.87 35.78 8.01 36.11 8.25 36.36C8.5 36.61 8.83 36.75 9.18 36.75L32.81 36.75C33.16 36.75 33.49 36.61 33.74 36.36Z" stroke="#FFFFFF" stroke-opacity="1.000000" stroke-width="2.000000" stroke-linejoin="round"/>
</svg>
