<svg width="42.000000" height="42.000000" viewBox="0 0 42 42" fill="none" xmlns="http://www.w3.org/2000/svg" xmlns:xlink="http://www.w3.org/1999/xlink">
	<desc>
			Created with Pixso.
	</desc>
	<defs/>
	<path d="M2.62 35.43L39.37 35.43" stroke="#FFFFFF" stroke-opacity="1.000000" stroke-width="2.000000" stroke-linejoin="round" stroke-linecap="round"/>
	<path d="M23.62 35.43L23.62 6.56C23.62 6.21 23.48 5.88 23.24 5.63C22.99 5.38 22.66 5.25 22.31 5.25L6.56 5.25C6.21 5.25 5.88 5.38 5.63 5.63C5.38 5.88 5.25 6.21 5.25 6.56L5.25 35.43" stroke="#FFFFFF" stroke-opacity="1.000000" stroke-width="2.000000" stroke-linejoin="round" stroke-linecap="round"/>
	<path d="M36.75 35.43L36.75 17.06C36.75 16.71 36.61 16.38 36.36 16.13C36.11 15.88 35.78 15.75 35.43 15.75L23.62 15.75" stroke="#FFFFFF" stroke-opacity="1.000000" stroke-width="2.000000" stroke-linejoin="round" stroke-linecap="round"/>
	<path d="M10.5 11.81L15.75 11.81" stroke="#FFFFFF" stroke-opacity="1.000000" stroke-width="2.000000" stroke-linejoin="round" stroke-linecap="round"/>
	<path d="M13.12 22.31L18.37 22.31" stroke="#FFFFFF" stroke-opacity="1.000000" stroke-width="2.000000" stroke-linejoin="round" stroke-linecap="round"/>
	<path d="M10.5 28.87L15.75 28.87" stroke="#FFFFFF" stroke-opacity="1.000000" stroke-width="2.000000" stroke-linejoin="round" stroke-linecap="round"/>
	<path d="M28.87 28.87L31.5 28.87" stroke="#FFFFFF" stroke-opacity="1.000000" stroke-width="2.000000" stroke-linejoin="round" stroke-linecap="round"/>
	<path d="M28.87 22.31L31.5 22.31" stroke="#FFFFFF" stroke-opacity="1.000000" stroke-width="2.000000" stroke-linejoin="round" stroke-linecap="round"/>
</svg>
